<svg version="1.1" viewBox="0.0 0.0 960.0 540.0" fill="none" stroke="none" stroke-linecap="square" stroke-miterlimit="10" xmlns:xlink="http://www.w3.org/1999/xlink" xmlns="http://www.w3.org/2000/svg"><clipPath id="g290deac572f_0_47.0"><path d="m0 0l960.0 0l0 540.0l-960.0 0l0 -540.0z" clip-rule="nonzero"/></clipPath><g clip-path="url(#g290deac572f_0_47.0)"><path fill="#fff2cc" d="m0 0l960.0 0l0 540.0l-960.0 0z" fill-rule="evenodd"/><path fill="#31394d" d="m0 0l960.00006 0l0 134.07874l-960.00006 0z" fill-rule="evenodd"/><path fill="#000000" fill-opacity="0.0" d="m32.727036 52.59055l894.55115 0l0 65.480316l-894.55115 0z" fill-rule="evenodd"/><path fill="#ffffff" d="m65.24266 90.86805l4.078125 -19.96875l4.578125 0l-6.125 26.53125l-4.40625 0l-5.046875 -19.375l-5.171875 19.375l-4.421875 0l-6.125 -26.53125l4.578125 0l4.109375 19.9375l5.078125 -19.9375l3.859375 0l5.015625 19.96875zm15.969376 -11.015625q2.15625 -2.5 5.484375 -2.5q6.296875 0 6.390625 7.1875l0 12.890625l-4.421875 0l0 -12.71875q0 -2.046875 -0.890625 -2.890625q-0.875 -0.84375 -2.59375 -0.84375q-2.65625 0 -3.96875 2.359375l0 14.09375l-4.4375 0l0 -28.0l4.4375 0l0 10.421875zm28.129929 17.578125q-0.28125 -0.5625 -0.5 -1.84375q-2.125 2.203125 -5.1875 2.203125q-2.96875 0 -4.84375 -1.6875q-1.875 -1.703125 -1.875 -4.1875q0 -3.15625 2.34375 -4.84375q2.34375 -1.6875 6.703125 -1.6875l2.703125 0l0 -1.296875q0 -1.53125 -0.859375 -2.453125q-0.84375 -0.921875 -2.59375 -0.921875q-1.515625 0 -2.484375 0.765625q-0.96875 0.75 -0.96875 1.921875l-4.421875 0q0 -1.625 1.0625 -3.03125q1.078125 -1.421875 2.921875 -2.21875q1.859375 -0.796875 4.140625 -0.796875q3.46875 0 5.515625 1.734375q2.0625 1.734375 2.125 4.890625l0 8.890625q0 2.671875 0.75 4.25l0 0.3125l-4.53125 0zm-4.859375 -3.1875q1.3125 0 2.46875 -0.640625q1.15625 -0.640625 1.734375 -1.71875l0 -3.71875l-2.375 0q-2.46875 0 -3.71875 0.859375q-1.234375 0.859375 -1.234375 2.421875q0 1.28125 0.84375 2.046875q0.859375 0.75 2.28125 0.75zm18.820099 -21.328125l0 4.796875l3.484375 0l0 3.28125l-3.484375 0l0 11.0q0 1.140625 0.453125 1.640625q0.453125 0.5 1.59375 0.5q0.765625 0 1.546875 -0.1875l0 3.4375q-1.515625 0.40625 -2.90625 0.40625q-5.109375 0 -5.109375 -5.625l0 -11.171875l-3.25 0l0 -3.28125l3.25 0l0 -4.796875l4.421875 0zm23.067291 18.171875l4.0 -13.375l4.734375 0l-7.84375 22.703125q-1.8125 4.984375 -6.125 4.984375q-0.96875 0 -2.140625 -0.328125l0 -3.4375l0.84375 0.0625q1.671875 0 2.515625 -0.609375q0.859375 -0.609375 1.34375 -2.046875l0.640625 -1.703125l-6.921875 -19.625l4.78125 0l4.171875 13.375zm10.164139 -3.703125q0 -2.890625 1.140625 -5.21875q1.15625 -2.328125 3.234375 -3.5625q2.078125 -1.25 4.78125 -1.25q3.984375 0 6.46875 2.5625q2.5 2.5625 2.6875 6.8125l0.03125 1.046875q0 2.90625 -1.125 5.203125q-1.125 2.296875 -3.21875 3.5625q-2.078125 1.25 -4.8125 1.25q-4.171875 0 -6.6875 -2.765625q-2.5 -2.78125 -2.5 -7.421875l0 -0.21875zm4.4375 0.390625q0 3.046875 1.25 4.765625q1.265625 1.71875 3.5 1.71875q2.25 0 3.484375 -1.75q1.25 -1.75 1.25 -5.125q0 -2.984375 -1.28125 -4.734375q-1.28125 -1.75 -3.484375 -1.75q-2.171875 0 -3.453125 1.71875q-1.265625 1.71875 -1.265625 5.15625zm29.595993 7.71875q-1.953125 2.296875 -5.546875 2.296875q-3.203125 0 -4.859375 -1.875q-1.640625 -1.875 -1.640625 -5.421875l0 -12.78125l4.421875 0l0 12.71875q0 3.75 3.125 3.75q3.21875 0 4.359375 -2.3125l0 -14.15625l4.421875 0l0 19.71875l-4.171875 0l-0.109375 -1.9375zm9.710648 -16.734375l-2.265625 -1.390625q1.640625 -2.390625 1.703125 -5.046875l0 -2.890625l3.875 0l0 2.515625q0 1.875 -0.953125 3.78125q-0.953125 1.90625 -2.359375 3.03125zm11.889496 18.671875l-4.4375 0l0 -28.0l4.4375 0l0 28.0zm9.532532 0l-4.4375 0l0 -28.0l4.4375 0l0 28.0zm18.218735 -19.71875l0.125 2.28125q2.1875 -2.640625 5.75 -2.640625q6.15625 0 6.265625 7.046875l0 13.03125l-4.421875 0l0 -12.78125q0 -1.875 -0.8125 -2.765625q-0.8125 -0.90625 -2.65625 -0.90625q-2.671875 0 -3.984375 2.421875l0 14.03125l-4.4375 0l0 -19.71875l4.171875 0zm25.338242 20.078125q-4.203125 0 -6.828125 -2.640625q-2.6093597 -2.65625 -2.6093597 -7.0625l0 -0.546875q0 -2.953125 1.1406097 -5.28125q1.140625 -2.328125 3.1875 -3.609375q2.0625 -1.296875 4.59375 -1.296875q4.03125 0 6.21875 2.5625q2.203125 2.5625 2.203125 7.265625l0 1.796875l-12.875 0q0.1875 2.4375 1.625 3.859375q1.4375 1.421875 3.59375 1.421875q3.046875 0 4.96875 -2.453125l2.390625 2.265625q-1.1875 1.78125 -3.171875 2.75q-1.96875 0.96875 -4.4375 0.96875zm-0.53125 -16.890625q-1.8125 0 -2.9375 1.28125q-1.125 1.265625 -1.4375 3.546875l8.4375 0l0 -0.328125q-0.140625 -2.21875 -1.1875 -3.359375q-1.03125 -1.140625 -2.875 -1.140625zm20.562317 16.890625q-4.203125 0 -6.828125 -2.640625q-2.609375 -2.65625 -2.609375 -7.0625l0 -0.546875q0 -2.953125 1.140625 -5.28125q1.140625 -2.328125 3.1875 -3.609375q2.0625 -1.296875 4.59375 -1.296875q4.03125 0 6.21875 2.5625q2.203125 2.5625 2.203125 7.265625l0 1.796875l-12.875 0q0.1875 2.4375 1.625 3.859375q1.4375 1.421875 3.59375 1.421875q3.046875 0 4.96875 -2.453125l2.390625 2.265625q-1.1875 1.78125 -3.171875 2.75q-1.96875 0.96875 -4.4375 0.96875zm-0.53125 -16.890625q-1.8125 0 -2.9375 1.28125q-1.125 1.265625 -1.4375 3.546875l8.4375 0l0 -0.328125q-0.140625 -2.21875 -1.1875 -3.359375q-1.03125 -1.140625 -2.875 -1.140625zm11.046692 6.53125q0 -4.5625 2.109375 -7.3125q2.125 -2.765625 5.671875 -2.765625q3.140625 0 5.078125 2.171875l0 -10.09375l4.421875 0l0 28.0l-4.015625 0l-0.21875 -2.046875q-1.984375 2.40625 -5.296875 2.40625q-3.46875 0 -5.609375 -2.78125q-2.140625 -2.796875 -2.140625 -7.578125zm4.4375 0.375q0 3.015625 1.15625 4.703125q1.15625 1.671875 3.28125 1.671875q2.71875 0 3.984375 -2.421875l0 -8.421875q-1.234375 -2.359375 -3.9375 -2.359375q-2.15625 0 -3.328125 1.703125q-1.15625 1.703125 -1.15625 5.125z" fill-rule="nonzero"/><path fill="#000000" fill-opacity="0.0" d="m889.4969 489.5766l57.606323 0l0 41.322815l-57.606323 0z" fill-rule="evenodd"/><path fill="#666666" d="m936.49414 511.85052l1.3125 0l0 0.984375l-1.3125 0l0 2.203125l-1.21875 0l0 -2.203125l-4.3125 0l0 -0.703125l4.25 -6.5625l1.28125 0l0 6.28125zm-4.15625 0l2.9375 0l0 -4.640625l-0.140625 0.265625l-2.796875 4.375z" fill-rule="nonzero"/><path fill="#000000" fill-opacity="0.0" d="m65.72966 242.17323l749.2598 0l0 148.66142l-749.2598 0z" fill-rule="evenodd"/><path fill="#000000" d="m90.69168 263.52322q1.421875 0 2.796875 0.75q1.390625 0.734375 2.15625 2.125q0.765625 1.375 0.765625 2.859375q0 2.375 -1.6875 4.0625q-1.671875 1.671875 -4.03125 1.671875q-2.390625 0 -4.078125 -1.671875q-1.671875 -1.6875 -1.671875 -4.0625q0 -1.5 0.765625 -2.875q0.78125 -1.375 2.15625 -2.109375q1.375 -0.75 2.828125 -0.75z" fill-rule="nonzero"/><path fill="#000000" d="m129.01091 270.80447l0.375 2.5l0.53125 -2.265625l3.75 -13.21875l2.109375 0l3.65625 13.21875l0.515625 2.296875l0.40625 -2.546875l2.9375 -12.96875l2.515625 0l-4.59375 18.953125l-2.28125 0l-3.90625 -13.8125l-0.296875 -1.4375l-0.296875 1.4375l-4.046875 13.8125l-2.28125 0l-4.578125 -18.953125l2.5 0l2.984375 12.984375zm24.636597 6.234375q-2.875 0 -4.671875 -1.875q-1.796875 -1.890625 -1.796875 -5.046875l0 -0.4375q0 -2.09375 0.796875 -3.734375q0.8125 -1.65625 2.25 -2.578125q1.4375 -0.9375 3.109375 -0.9375q2.75 0 4.265625 1.8125q1.53125 1.8125 1.53125 5.171875l0 1.0l-9.53125 0q0.046875 2.09375 1.203125 3.375q1.171875 1.28125 2.96875 1.28125q1.28125 0 2.15625 -0.515625q0.890625 -0.53125 1.546875 -1.390625l1.484375 1.15625q-1.78125 2.71875 -5.3125 2.71875zm-0.3125 -12.625q-1.453125 0 -2.4375 1.0625q-0.984375 1.046875 -1.21875 2.96875l7.046875 0l0 -0.1875q-0.109375 -1.828125 -1.0 -2.828125q-0.875 -1.015625 -2.390625 -1.015625zm20.51271 5.46875q0 3.234375 -1.484375 5.203125q-1.484375 1.953125 -3.984375 1.953125q-2.671875 0 -4.125 -1.890625l-0.125 1.625l-2.203125 0l0 -20.0l2.40625 0l0 7.46875q1.453125 -1.8125 4.015625 -1.8125q2.5625 0 4.03125 1.9375q1.46875 1.9375 1.46875 5.3125l0 0.203125zm-2.40625 -0.265625q0 -2.46875 -0.953125 -3.796875q-0.953125 -1.34375 -2.734375 -1.34375q-2.390625 0 -3.421875 2.203125l0 6.09375q1.109375 2.21875 3.4375 2.21875q1.734375 0 2.703125 -1.34375q0.96875 -1.34375 0.96875 -4.03125zm23.960327 0.265625q0 3.234375 -1.484375 5.203125q-1.484375 1.953125 -3.984375 1.953125q-2.671875 0 -4.125 -1.890625l-0.125 1.625l-2.203125 0l0 -20.0l2.40625 0l0 7.46875q1.453125 -1.8125 4.015625 -1.8125q2.5625 0 4.03125 1.9375q1.46875 1.9375 1.46875 5.3125l0 0.203125zm-2.40625 -0.265625q0 -2.46875 -0.953125 -3.796875q-0.953125 -1.34375 -2.734375 -1.34375q-2.390625 0 -3.421875 2.203125l0 6.09375q1.109375 2.21875 3.4375 2.21875q1.734375 0 2.703125 -1.34375q0.96875 -1.34375 0.96875 -4.03125zm12.236343 -4.765625q-0.546875 -0.09375 -1.1875 -0.09375q-2.359375 0 -3.203125 2.015625l0 10.0l-2.40625 0l0 -14.078125l2.34375 0l0.03125 1.625q1.1875 -1.890625 3.359375 -1.890625q0.703125 0 1.0625 0.1875l0 2.234375zm1.321991 4.75q0 -2.0625 0.8125 -3.71875q0.8125 -1.65625 2.265625 -2.546875q1.453125 -0.90625 3.3125 -0.90625q2.875 0 4.640625 2.0q1.78125 1.984375 1.78125 5.296875l0 0.15625q0 2.0625 -0.78125 3.703125q-0.78125 1.625 -2.25 2.546875q-1.46875 0.90625 -3.375 0.90625q-2.859375 0 -4.640625 -1.984375q-1.765625 -2.0 -1.765625 -5.28125l0 -0.171875zm2.421875 0.28125q0 2.34375 1.078125 3.765625q1.09375 1.421875 2.90625 1.421875q1.84375 0 2.921875 -1.4375q1.078125 -1.4375 1.078125 -4.03125q0 -2.3125 -1.109375 -3.75q-1.09375 -1.4375 -2.90625 -1.4375q-1.78125 0 -2.875 1.421875q-1.09375 1.40625 -1.09375 4.046875zm25.889893 3.578125l2.703125 -10.765625l2.40625 0l-4.09375 14.078125l-1.953125 0l-3.421875 -10.671875l-3.34375 10.671875l-1.953125 0l-4.078125 -14.078125l2.390625 0l2.78125 10.53125l3.265625 -10.53125l1.953125 0l3.34375 10.765625zm15.749985 -0.421875q0 -0.984375 -0.734375 -1.515625q-0.734375 -0.546875 -2.5625 -0.9375q-1.828125 -0.390625 -2.90625 -0.9375q-1.0625 -0.546875 -1.578125 -1.296875q-0.515625 -0.75 -0.515625 -1.796875q0 -1.734375 1.453125 -2.921875q1.46875 -1.203125 3.75 -1.203125q2.390625 0 3.875 1.234375q1.5 1.234375 1.5 3.171875l-2.421875 0q0 -1.0 -0.84375 -1.703125q-0.828125 -0.71875 -2.109375 -0.71875q-1.3125 0 -2.0625 0.578125q-0.734375 0.5625 -0.734375 1.484375q0 0.875 0.6875 1.328125q0.6875 0.4375 2.484375 0.84375q1.8125 0.390625 2.921875 0.953125q1.125 0.5625 1.671875 1.359375q0.546875 0.78125 0.546875 1.90625q0 1.890625 -1.515625 3.03125q-1.515625 1.140625 -3.921875 1.140625q-1.6875 0 -3.0 -0.59375q-1.296875 -0.609375 -2.03125 -1.671875q-0.734375 -1.078125 -0.734375 -2.328125l2.40625 0q0.0625 1.203125 0.96875 1.921875q0.90625 0.703125 2.390625 0.703125q1.375 0 2.1875 -0.546875q0.828125 -0.5625 0.828125 -1.484375zm11.400879 4.0q-2.875 0 -4.671875 -1.875q-1.796875 -1.890625 -1.796875 -5.046875l0 -0.4375q0 -2.09375 0.796875 -3.734375q0.8125 -1.65625 2.25 -2.578125q1.4375 -0.9375 3.109375 -0.9375q2.75 0 4.265625 1.8125q1.53125 1.8125 1.53125 5.171875l0 1.0l-9.53125 0q0.046875 2.09375 1.203125 3.375q1.171875 1.28125 2.96875 1.28125q1.28125 0 2.15625 -0.515625q0.890625 -0.53125 1.546875 -1.390625l1.484375 1.15625q-1.78125 2.71875 -5.3125 2.71875zm-0.3125 -12.625q-1.453125 0 -2.4375 1.0625q-0.984375 1.046875 -1.21875 2.96875l7.046875 0l0 -0.1875q-0.109375 -1.828125 -1.0 -2.828125q-0.875 -1.015625 -2.390625 -1.015625zm15.387695 0.4375q-0.546875 -0.09375 -1.1875 -0.09375q-2.359375 0 -3.203125 2.015625l0 10.0l-2.40625 0l0 -14.078125l2.34375 0l0.03125 1.625q1.1875 -1.890625 3.359375 -1.890625q0.703125 0 1.0625 0.1875l0 2.234375zm21.290771 8.609375l2.703125 -10.765625l2.40625 0l-4.09375 14.078125l-1.953125 0l-3.421875 -10.671875l-3.34375 10.671875l-1.953125 0l-4.078125 -14.078125l2.390625 0l2.78125 10.53125l3.265625 -10.53125l1.953125 0l3.34375 10.765625zm10.171875 3.3125l-2.40625 0l0 -14.078125l2.40625 0l0 14.078125zm-2.609375 -17.8125q0 -0.59375 0.359375 -1.0q0.359375 -0.40625 1.0625 -0.40625q0.703125 0 1.0625 0.40625q0.375 0.40625 0.375 1.0q0 0.578125 -0.375 0.96875q-0.359375 0.390625 -1.0625 0.390625q-0.703125 0 -1.0625 -0.390625q-0.359375 -0.390625 -0.359375 -0.96875zm9.734436 0.3125l0 3.421875l2.625 0l0 1.859375l-2.625 0l0 8.734375q0 0.84375 0.34375 1.265625q0.359375 0.421875 1.203125 0.421875q0.40625 0 1.140625 -0.15625l0 1.953125q-0.953125 0.265625 -1.84375 0.265625q-1.609375 0 -2.4375 -0.96875q-0.8125 -0.984375 -0.8125 -2.78125l0 -8.734375l-2.578125 0l0 -1.859375l2.578125 0l0 -3.421875l2.40625 0zm7.8481445 5.125q1.59375 -1.96875 4.15625 -1.96875q4.46875 0 4.515625 5.03125l0 9.3125l-2.421875 0l0 -9.3125q0 -1.53125 -0.6875 -2.25q-0.6875 -0.734375 -2.125 -0.734375q-1.171875 0 -2.0625 0.625q-0.890625 0.625 -1.375 1.640625l0 10.03125l-2.4062195 0l0 -20.0l2.4062195 0l0 7.625zm21.921387 12.375l-2.5 0l0 -18.953125l2.5 0l0 18.953125zm6.468506 -14.078125l0.078125 1.765625q1.625 -2.03125 4.21875 -2.03125q4.46875 0 4.515625 5.03125l0 9.3125l-2.421875 0l0 -9.3125q0 -1.53125 -0.6875 -2.25q-0.6875 -0.734375 -2.125 -0.734375q-1.171875 0 -2.0625 0.625q-0.890625 0.625 -1.375 1.640625l0 10.03125l-2.40625 0l0 -14.078125l2.265625 0zm15.707825 -3.421875l0 3.421875l2.625 0l0 1.859375l-2.625 0l0 8.734375q0 0.84375 0.34375 1.265625q0.359375 0.421875 1.203125 0.421875q0.40625 0 1.140625 -0.15625l0 1.953125q-0.953125 0.265625 -1.84375 0.265625q-1.609375 0 -2.4375 -0.96875q-0.8125 -0.984375 -0.8125 -2.78125l0 -8.734375l-2.578125 0l0 -1.859375l2.578125 0l0 -3.421875l2.40625 0zm11.285645 17.765625q-2.875 0 -4.671875 -1.875q-1.796875 -1.890625 -1.796875 -5.046875l0 -0.4375q0 -2.09375 0.796875 -3.734375q0.8125 -1.65625 2.25 -2.578125q1.4375 -0.9375 3.109375 -0.9375q2.75 0 4.265625 1.8125q1.53125 1.8125 1.53125 5.171875l0 1.0l-9.53125 0q0.046875 2.09375 1.203125 3.375q1.171875 1.28125 2.96875 1.28125q1.28125 0 2.15625 -0.515625q0.890625 -0.53125 1.546875 -1.390625l1.484375 1.15625q-1.78125 2.71875 -5.3125 2.71875zm-0.3125 -12.625q-1.453125 0 -2.4375 1.0625q-0.984375 1.046875 -1.21875 2.96875l7.046875 0l0 -0.1875q-0.109375 -1.828125 -1.0 -2.828125q-0.875 -1.015625 -2.390625 -1.015625zm15.387695 0.4375q-0.546875 -0.09375 -1.1875 -0.09375q-2.359375 0 -3.203125 2.015625l0 10.0l-2.40625 0l0 -14.078125l2.34375 0l0.03125 1.625q1.1875 -1.890625 3.359375 -1.890625q0.703125 0 1.0625 0.1875l0 2.234375zm4.4886475 -2.15625l0.078125 1.765625q1.625 -2.03125 4.21875 -2.03125q4.46875 0 4.515625 5.03125l0 9.3125l-2.421875 0l0 -9.3125q0 -1.53125 -0.6875 -2.25q-0.6875 -0.734375 -2.125 -0.734375q-1.171875 0 -2.0625 0.625q-0.890625 0.625 -1.375 1.640625l0 10.03125l-2.40625 0l0 -14.078125l2.265625 0zm18.28592 14.34375q-2.875 0 -4.671875 -1.875q-1.796875 -1.890625 -1.796875 -5.046875l0 -0.4375q0 -2.09375 0.796875 -3.734375q0.8125 -1.65625 2.25 -2.578125q1.4375 -0.9375 3.109375 -0.9375q2.75 0 4.265625 1.8125q1.53125 1.8125 1.53125 5.171875l0 1.0l-9.53125 0q0.046875 2.09375 1.203125 3.375q1.171875 1.28125 2.96875 1.28125q1.28125 0 2.15625 -0.515625q0.890625 -0.53125 1.546875 -1.390625l1.484375 1.15625q-1.78125 2.71875 -5.3125 2.71875zm-0.3125 -12.625q-1.453125 0 -2.4375 1.0625q-0.984375 1.046875 -1.21875 2.96875l7.046875 0l0 -0.1875q-0.109375 -1.828125 -1.0 -2.828125q-0.875 -1.015625 -2.390625 -1.015625zm11.856476 -5.140625l0 3.421875l2.625 0l0 1.859375l-2.625 0l0 8.734375q0 0.84375 0.34375 1.265625q0.359375 0.421875 1.203125 0.421875q0.40625 0 1.140625 -0.15625l0 1.953125q-0.953125 0.265625 -1.84375 0.265625q-1.609375 0 -2.4375 -0.96875q-0.8125 -0.984375 -0.8125 -2.78125l0 -8.734375l-2.578125 0l0 -1.859375l2.578125 0l0 -3.421875l2.40625 0zm20.728394 17.5q-0.203125 -0.421875 -0.34375 -1.484375q-1.671875 1.75 -4.0 1.75q-2.078125 0 -3.421875 -1.171875q-1.328125 -1.1875 -1.328125 -3.0q0 -2.203125 1.671875 -3.40625q1.671875 -1.21875 4.703125 -1.21875l2.34375 0l0 -1.109375q0 -1.265625 -0.765625 -2.015625q-0.75 -0.75 -2.21875 -0.75q-1.28125 0 -2.15625 0.65625q-0.875 0.640625 -0.875 1.578125l-2.421875 0q0 -1.0625 0.75 -2.046875q0.75 -0.984375 2.03125 -1.546875q1.28125 -0.578125 2.8125 -0.578125q2.4375 0 3.8125 1.21875q1.390625 1.21875 1.4375 3.34375l0 6.484375q0 1.9375 0.5 3.09375l0 0.203125l-2.53125 0zm-4.0 -1.828125q1.140625 0 2.15625 -0.578125q1.015625 -0.59375 1.46875 -1.53125l0 -2.890625l-1.890625 0q-4.421875 0 -4.421875 2.578125q0 1.140625 0.75 1.78125q0.765625 0.640625 1.9375 0.640625zm15.452667 0.125q1.296875 0 2.25 -0.78125q0.96875 -0.78125 1.078125 -1.953125l2.265625 0q-0.0625 1.203125 -0.828125 2.296875q-0.765625 1.09375 -2.046875 1.75q-1.28125 0.65625 -2.71875 0.65625q-2.875 0 -4.578125 -1.921875q-1.6875 -1.921875 -1.6875 -5.25l0 -0.40625q0 -2.0625 0.75 -3.65625q0.75 -1.609375 2.15625 -2.484375q1.421875 -0.890625 3.34375 -0.890625q2.375 0 3.9375 1.421875q1.578125 1.421875 1.671875 3.6875l-2.265625 0q-0.109375 -1.375 -1.046875 -2.25q-0.921875 -0.875 -2.296875 -0.875q-1.828125 0 -2.84375 1.328125q-1.0 1.3125 -1.0 3.8125l0 0.453125q0 2.4375 1.0 3.75q1.0 1.3125 2.859375 1.3125zm13.952881 0q1.296875 0 2.25 -0.78125q0.96875 -0.78125 1.078125 -1.953125l2.265625 0q-0.0625 1.203125 -0.828125 2.296875q-0.765625 1.09375 -2.046875 1.75q-1.28125 0.65625 -2.71875 0.65625q-2.875 0 -4.578125 -1.921875q-1.6875 -1.921875 -1.6875 -5.25l0 -0.40625q0 -2.0625 0.75 -3.65625q0.75 -1.609375 2.15625 -2.484375q1.421875 -0.890625 3.34375 -0.890625q2.375 0 3.9375 1.421875q1.578125 1.421875 1.671875 3.6875l-2.265625 0q-0.109375 -1.375 -1.046875 -2.25q-0.921875 -0.875 -2.296875 -0.875q-1.828125 0 -2.84375 1.328125q-1.0 1.3125 -1.0 3.8125l0 0.453125q0 2.4375 1.0 3.75q1.0 1.3125 2.859375 1.3125zm14.156006 1.96875q-2.875 0 -4.671875 -1.875q-1.796875 -1.890625 -1.796875 -5.046875l0 -0.4375q0 -2.09375 0.796875 -3.734375q0.8125 -1.65625 2.25 -2.578125q1.4375 -0.9375 3.109375 -0.9375q2.75 0 4.265625 1.8125q1.53125 1.8125 1.53125 5.171875l0 1.0l-9.53125 0q0.046875 2.09375 1.203125 3.375q1.171875 1.28125 2.96875 1.28125q1.28125 0 2.15625 -0.515625q0.890625 -0.53125 1.546875 -1.390625l1.484375 1.15625q-1.78125 2.71875 -5.3125 2.71875zm-0.3125 -12.625q-1.453125 0 -2.4375 1.0625q-0.984375 1.046875 -1.21875 2.96875l7.046875 0l0 -0.1875q-0.109375 -1.828125 -1.0 -2.828125q-0.875 -1.015625 -2.390625 -1.015625zm16.77835 8.625q0 -0.984375 -0.734375 -1.515625q-0.734375 -0.546875 -2.5625 -0.9375q-1.828125 -0.390625 -2.90625 -0.9375q-1.0625 -0.546875 -1.578125 -1.296875q-0.515625 -0.75 -0.515625 -1.796875q0 -1.734375 1.453125 -2.921875q1.46875 -1.203125 3.75 -1.203125q2.390625 0 3.875 1.234375q1.5 1.234375 1.5 3.171875l-2.421875 0q0 -1.0 -0.84375 -1.703125q-0.828125 -0.71875 -2.109375 -0.71875q-1.3125 0 -2.0625 0.578125q-0.734375 0.5625 -0.734375 1.484375q0 0.875 0.6875 1.328125q0.6875 0.4375 2.484375 0.84375q1.8125 0.390625 2.921875 0.953125q1.125 0.5625 1.671875 1.359375q0.546875 0.78125 0.546875 1.90625q0 1.890625 -1.515625 3.03125q-1.515625 1.140625 -3.921875 1.140625q-1.6875 0 -3.0 -0.59375q-1.296875 -0.609375 -2.03125 -1.671875q-0.734375 -1.078125 -0.734375 -2.328125l2.40625 0q0.0625 1.203125 0.96875 1.921875q0.90625 0.703125 2.390625 0.703125q1.375 0 2.1875 -0.546875q0.828125 -0.5625 0.828125 -1.484375zm13.744659 0q0 -0.984375 -0.734375 -1.515625q-0.734375 -0.546875 -2.5625 -0.9375q-1.828125 -0.390625 -2.90625 -0.9375q-1.0625305 -0.546875 -1.5781555 -1.296875q-0.515625 -0.75 -0.515625 -1.796875q0 -1.734375 1.453125 -2.921875q1.4687805 -1.203125 3.7500305 -1.203125q2.390625 0 3.875 1.234375q1.5 1.234375 1.5 3.171875l-2.421875 0q0 -1.0 -0.84375 -1.703125q-0.828125 -0.71875 -2.109375 -0.71875q-1.3125 0 -2.0625 0.578125q-0.734375 0.5625 -0.734375 1.484375q0 0.875 0.6875 1.328125q0.6875 0.4375 2.484375 0.84375q1.8125 0.390625 2.921875 0.953125q1.125 0.5625 1.671875 1.359375q0.546875 0.78125 0.546875 1.90625q0 1.890625 -1.515625 3.03125q-1.515625 1.140625 -3.921875 1.140625q-1.6875 0 -3.0 -0.59375q-1.2969055 -0.609375 -2.0312805 -1.671875q-0.734375 -1.078125 -0.734375 -2.328125l2.4062805 0q0.0625 1.203125 0.96875 1.921875q0.90625 0.703125 2.390625 0.703125q1.375 0 2.1875 -0.546875q0.828125 -0.5625 0.828125 -1.484375z" fill-rule="nonzero"/><path fill="#000000" d="m90.69168 295.52322q1.421875 0 2.796875 0.75q1.390625 0.734375 2.15625 2.125q0.765625 1.375 0.765625 2.859375q0 2.375 -1.6875 4.0625q-1.671875 1.671875 -4.03125 1.671875q-2.390625 0 -4.078125 -1.671875q-1.671875 -1.6875 -1.671875 -4.0625q0 -1.5 0.765625 -2.875q0.78125 -1.375 2.15625 -2.109375q1.375 -0.75 2.828125 -0.75z" fill-rule="nonzero"/><path fill="#000000" d="m135.40154 303.8201l-7.953125 0l-1.78125 4.953125l-2.578125 0l7.234375 -18.953125l2.1875 0l7.25 18.953125l-2.5625 0l-1.796875 -4.953125zm-7.1875 -2.046875l6.4375 0l-3.234375 -8.859375l-3.203125 8.859375zm19.373413 5.296875q1.296875 0 2.25 -0.78125q0.96875 -0.78125 1.078125 -1.953125l2.265625 0q-0.0625 1.203125 -0.828125 2.296875q-0.765625 1.09375 -2.046875 1.75q-1.28125 0.65625 -2.71875 0.65625q-2.875 0 -4.578125 -1.921875q-1.6875 -1.921875 -1.6875 -5.25l0 -0.40625q0 -2.0625 0.75 -3.65625q0.75 -1.609375 2.15625 -2.484375q1.421875 -0.890625 3.34375 -0.890625q2.375 0 3.9375 1.421875q1.578125 1.421875 1.671875 3.6875l-2.265625 0q-0.109375 -1.375 -1.046875 -2.25q-0.921875 -0.875 -2.296875 -0.875q-1.828125 0 -2.84375 1.328125q-1.0 1.3125 -1.0 3.8125l0 0.453125q0 2.4375 1.0 3.75q1.0 1.3125 2.859375 1.3125zm13.952881 0q1.296875 0 2.25 -0.78125q0.96875 -0.78125 1.078125 -1.953125l2.265625 0q-0.0625 1.203125 -0.828125 2.296875q-0.765625 1.09375 -2.046875 1.75q-1.28125 0.65625 -2.71875 0.65625q-2.875 0 -4.578125 -1.921875q-1.6875 -1.921875 -1.6875 -5.25l0 -0.40625q0 -2.0625 0.75 -3.65625q0.75 -1.609375 2.15625 -2.484375q1.421875 -0.890625 3.34375 -0.890625q2.375 0 3.9375 1.421875q1.578125 1.421875 1.671875 3.6875l-2.265625 0q-0.109375 -1.375 -1.046875 -2.25q-0.921875 -0.875 -2.296875 -0.875q-1.828125 0 -2.84375 1.328125q-1.0 1.3125 -1.0 3.8125l0 0.453125q0 2.4375 1.0 3.75q1.0 1.3125 2.859375 1.3125zm14.156006 1.96875q-2.875 0 -4.671875 -1.875q-1.796875 -1.890625 -1.796875 -5.046875l0 -0.4375q0 -2.09375 0.796875 -3.734375q0.8125 -1.65625 2.25 -2.578125q1.4375 -0.9375 3.109375 -0.9375q2.75 0 4.265625 1.8125q1.53125 1.8125 1.53125 5.171875l0 1.0l-9.53125 0q0.046875 2.09375 1.203125 3.375q1.171875 1.28125 2.96875 1.28125q1.28125 0 2.15625 -0.515625q0.890625 -0.53125 1.546875 -1.390625l1.484375 1.15625q-1.78125 2.71875 -5.3125 2.71875zm-0.3125 -12.625q-1.453125 0 -2.4375 1.0625q-0.984375 1.046875 -1.21875 2.96875l7.046875 0l0 -0.1875q-0.109375 -1.828125 -1.0 -2.828125q-0.875 -1.015625 -2.390625 -1.015625zm16.778336 8.625q0 -0.984375 -0.734375 -1.515625q-0.734375 -0.546875 -2.5625 -0.9375q-1.828125 -0.390625 -2.90625 -0.9375q-1.0625 -0.546875 -1.578125 -1.296875q-0.515625 -0.75 -0.515625 -1.796875q0 -1.734375 1.453125 -2.921875q1.46875 -1.203125 3.75 -1.203125q2.390625 0 3.875 1.234375q1.5 1.234375 1.5 3.171875l-2.421875 0q0 -1.0 -0.84375 -1.703125q-0.828125 -0.71875 -2.109375 -0.71875q-1.3125 0 -2.0625 0.578125q-0.734375 0.5625 -0.734375 1.484375q0 0.875 0.6875 1.328125q0.6875 0.4375 2.484375 0.84375q1.8125 0.390625 2.921875 0.953125q1.125 0.5625 1.671875 1.359375q0.546875 0.78125 0.546875 1.90625q0 1.890625 -1.515625 3.03125q-1.515625 1.140625 -3.921875 1.140625q-1.6875 0 -3.0 -0.59375q-1.296875 -0.609375 -2.03125 -1.671875q-0.734375 -1.078125 -0.734375 -2.328125l2.40625 0q0.0625 1.203125 0.96875 1.921875q0.90625 0.703125 2.390625 0.703125q1.375 0 2.1875 -0.546875q0.828125 -0.5625 0.828125 -1.484375zm13.744629 0q0 -0.984375 -0.734375 -1.515625q-0.734375 -0.546875 -2.5625 -0.9375q-1.828125 -0.390625 -2.90625 -0.9375q-1.0625 -0.546875 -1.578125 -1.296875q-0.515625 -0.75 -0.515625 -1.796875q0 -1.734375 1.453125 -2.921875q1.46875 -1.203125 3.75 -1.203125q2.390625 0 3.875 1.234375q1.5 1.234375 1.5 3.171875l-2.421875 0q0 -1.0 -0.84375 -1.703125q-0.828125 -0.71875 -2.109375 -0.71875q-1.3125 0 -2.0625 0.578125q-0.734375 0.5625 -0.734375 1.484375q0 0.875 0.6875 1.328125q0.6875 0.4375 2.484375 0.84375q1.8125 0.390625 2.921875 0.953125q1.125 0.5625 1.671875 1.359375q0.546875 0.78125 0.546875 1.90625q0 1.890625 -1.515625 3.03125q-1.515625 1.140625 -3.921875 1.140625q-1.6875 0 -3.0 -0.59375q-1.296875 -0.609375 -2.03125 -1.671875q-0.734375 -1.078125 -0.734375 -2.328125l2.40625 0q0.0625 1.203125 0.96875 1.921875q0.90625 0.703125 2.390625 0.703125q1.375 0 2.1875 -0.546875q0.828125 -0.5625 0.828125 -1.484375zm15.421738 -13.765625l0 3.421875l2.625 0l0 1.859375l-2.625 0l0 8.734375q0 0.84375 0.34375 1.265625q0.359375 0.421875 1.203125 0.421875q0.40625 0 1.140625 -0.15625l0 1.953125q-0.953125 0.265625 -1.84375 0.265625q-1.609375 0 -2.4375 -0.96875q-0.8125 -0.984375 -0.8125 -2.78125l0 -8.734375l-2.578125 0l0 -1.859375l2.578125 0l0 -3.421875l2.40625 0zm4.540863 10.328125q0 -2.0625 0.8125 -3.71875q0.8125 -1.65625 2.265625 -2.546875q1.453125 -0.90625 3.3125 -0.90625q2.875 0 4.640625 2.0q1.78125 1.984375 1.78125 5.296875l0 0.15625q0 2.0625 -0.78125 3.703125q-0.78125 1.625 -2.25 2.546875q-1.46875 0.90625 -3.375 0.90625q-2.859375 0 -4.640625 -1.984375q-1.765625 -2.0 -1.765625 -5.28125l0 -0.171875zm2.421875 0.28125q0 2.34375 1.078125 3.765625q1.09375 1.421875 2.90625 1.421875q1.84375 0 2.921875 -1.4375q1.078125 -1.4375 1.078125 -4.03125q0 -2.3125 -1.109375 -3.75q-1.09375 -1.4375 -2.90625 -1.4375q-1.78125 0 -2.875 1.421875q-1.09375 1.40625 -1.09375 4.046875zm28.707626 6.890625q-0.203125 -0.421875 -0.34375 -1.484375q-1.671875 1.75 -4.0 1.75q-2.078125 0 -3.421875 -1.171875q-1.328125 -1.1875 -1.328125 -3.0q0 -2.203125 1.671875 -3.40625q1.671875 -1.21875 4.703125 -1.21875l2.34375 0l0 -1.109375q0 -1.265625 -0.765625 -2.015625q-0.75 -0.75 -2.21875 -0.75q-1.28125 0 -2.15625 0.65625q-0.875 0.640625 -0.875 1.578125l-2.421875 0q0 -1.0625 0.75 -2.046875q0.75 -0.984375 2.03125 -1.546875q1.28125 -0.578125 2.8125 -0.578125q2.4375 0 3.8125 1.21875q1.390625 1.21875 1.4375 3.34375l0 6.484375q0 1.9375 0.5 3.09375l0 0.203125l-2.53125 0zm-4.0 -1.828125q1.140625 0 2.15625 -0.578125q1.015625 -0.59375 1.46875 -1.53125l0 -2.890625l-1.890625 0q-4.421875 0 -4.421875 2.578125q0 1.140625 0.75 1.78125q0.765625 0.640625 1.9375 0.640625zm19.676636 -15.671875l0 3.421875l2.625 0l0 1.859375l-2.625 0l0 8.734375q0 0.84375 0.34375 1.265625q0.359375 0.421875 1.203125 0.421875q0.40625 0 1.140625 -0.15625l0 1.953125q-0.953125 0.265625 -1.84375 0.265625q-1.609375 0 -2.4375 -0.96875q-0.8125 -0.984375 -0.8125 -2.78125l0 -8.734375l-2.578125 0l0 -1.859375l2.578125 0l0 -3.421875l2.40625 0zm11.285675 17.765625q-2.875 0 -4.671875 -1.875q-1.796875 -1.890625 -1.796875 -5.046875l0 -0.4375q0 -2.09375 0.796875 -3.734375q0.8125 -1.65625 2.25 -2.578125q1.4375 -0.9375 3.109375 -0.9375q2.75 0 4.265625 1.8125q1.53125 1.8125 1.53125 5.171875l0 1.0l-9.53125 0q0.046875 2.09375 1.203125 3.375q1.171875 1.28125 2.96875 1.28125q1.28125 0 2.15625 -0.515625q0.890625 -0.53125 1.546875 -1.390625l1.484375 1.15625q-1.78125 2.71875 -5.3125 2.71875zm-0.3125 -12.625q-1.453125 0 -2.4375 1.0625q-0.984375 1.046875 -1.21875 2.96875l7.046875 0l0 -0.1875q-0.109375 -1.828125 -1.0 -2.828125q-0.875 -1.015625 -2.390625 -1.015625zm13.30957 3.421875l3.125 -5.140625l2.8125 0l-4.609375 6.953125l4.75 7.125l-2.78125 0l-3.25 -5.265625l-3.265625 5.265625l-2.796875 0l4.75 -7.125l-4.609375 -6.953125l2.796875 0l3.078125 5.140625zm11.757874 -8.5625l0 3.421875l2.625 0l0 1.859375l-2.625 0l0 8.734375q0 0.84375 0.34375 1.265625q0.359375 0.421875 1.203125 0.421875q0.40625 0 1.140625 -0.15625l0 1.953125q-0.953125 0.265625 -1.84375 0.265625q-1.609375 0 -2.4375 -0.96875q-0.8125 -0.984375 -0.8125 -2.78125l0 -8.734375l-2.578125 0l0 -1.859375l2.578125 0l0 -3.421875l2.40625 0zm17.884644 17.765625q-2.875 0 -4.671875 -1.875q-1.796875 -1.890625 -1.796875 -5.046875l0 -0.4375q0 -2.09375 0.796875 -3.734375q0.8125 -1.65625 2.25 -2.578125q1.4375 -0.9375 3.109375 -0.9375q2.75 0 4.265625 1.8125q1.53125 1.8125 1.53125 5.171875l0 1.0l-9.53125 0q0.046875 2.09375 1.203125 3.375q1.171875 1.28125 2.96875 1.28125q1.28125 0 2.15625 -0.515625q0.890625 -0.53125 1.546875 -1.390625l1.484375 1.15625q-1.78125 2.71875 -5.3125 2.71875zm-0.3125 -12.625q-1.453125 0 -2.4375 1.0625q-0.984375 1.046875 -1.21875 2.96875l7.046875 0l0 -0.1875q-0.109375 -1.828125 -1.0 -2.828125q-0.875 -1.015625 -2.390625 -1.015625zm7.9970703 5.203125q0 -3.25 1.53125 -5.21875q1.546875 -1.96875 4.03125 -1.96875q2.46875 0 3.921875 1.6875l0 -7.34375l2.40625 0l0 20.0l-2.21875 0l-0.109375 -1.515625q-1.453125 1.78125 -4.03125 1.78125q-2.4375 0 -3.984375 -2.0q-1.546875 -2.015625 -1.546875 -5.234375l0 -0.1875zm2.40625 0.265625q0 2.40625 0.984375 3.765625q1.0 1.34375 2.734375 1.34375q2.296875 0 3.359375 -2.0625l0 -6.46875q-1.09375 -1.984375 -3.328125 -1.984375q-1.765625 0 -2.765625 1.375q-0.984375 1.359375 -0.984375 4.03125zm15.830078 6.890625l-2.40625 0l0 -14.078125l2.40625 0l0 14.078125zm-2.609375 -17.8125q0 -0.59375 0.359375 -1.0q0.359375 -0.40625 1.0625 -0.40625q0.703125 0 1.0625 0.40625q0.375 0.40625 0.375 1.0q0 0.578125 -0.375 0.96875q-0.359375 0.390625 -1.0625 0.390625q-0.703125 0 -1.0625 -0.390625q-0.359375 -0.390625 -0.359375 -0.96875zm9.734436 0.3125l0 3.421875l2.625 0l0 1.859375l-2.625 0l0 8.734375q0 0.84375 0.34375 1.265625q0.359375 0.421875 1.203125 0.421875q0.40625 0 1.140625 -0.15625l0 1.953125q-0.953125 0.265625 -1.84375 0.265625q-1.609375 0 -2.4375 -0.96875q-0.8125 -0.984375 -0.8125 -2.78125l0 -8.734375l-2.578125 0l0 -1.859375l2.578125 0l0 -3.421875l2.40625 0zm4.540863 10.328125q0 -2.0625 0.8125 -3.71875q0.8125 -1.65625 2.265625 -2.546875q1.453125 -0.90625 3.3125 -0.90625q2.875 0 4.640625 2.0q1.78125 1.984375 1.78125 5.296875l0 0.15625q0 2.0625 -0.78125 3.703125q-0.78125 1.625 -2.25 2.546875q-1.46875 0.90625 -3.375 0.90625q-2.859375 0 -4.640625 -1.984375q-1.765625 -2.0 -1.765625 -5.28125l0 -0.171875zm2.421875 0.28125q0 2.34375 1.078125 3.765625q1.09375 1.421875 2.90625 1.421875q1.84375 0 2.921875 -1.4375q1.078125 -1.4375 1.078125 -4.03125q0 -2.3125 -1.109375 -3.75q-1.09375 -1.4375 -2.90625 -1.4375q-1.78125 0 -2.875 1.421875q-1.09375 1.40625 -1.09375 4.046875zm20.218018 -5.03125q-0.546875 -0.09375 -1.1875 -0.09375q-2.359375 0 -3.203125 2.015625l0 10.0l-2.40625 0l0 -14.078125l2.34375 0l0.03125 1.625q1.1875 -1.890625 3.359375 -1.890625q0.703125 0 1.0625 0.1875l0 2.234375zm17.009552 8.1875q0 -0.984375 -0.734375 -1.515625q-0.734375 -0.546875 -2.5625 -0.9375q-1.828125 -0.390625 -2.90625 -0.9375q-1.0625 -0.546875 -1.578125 -1.296875q-0.515625 -0.75 -0.515625 -1.796875q0 -1.734375 1.453125 -2.921875q1.46875 -1.203125 3.75 -1.203125q2.390625 0 3.875 1.234375q1.5 1.234375 1.5 3.171875l-2.421875 0q0 -1.0 -0.84375 -1.703125q-0.828125 -0.71875 -2.109375 -0.71875q-1.3125 0 -2.0625 0.578125q-0.734375 0.5625 -0.734375 1.484375q0 0.875 0.6875 1.328125q0.6875 0.4375 2.484375 0.84375q1.8125 0.390625 2.921875 0.953125q1.125 0.5625 1.671875 1.359375q0.546875 0.78125 0.546875 1.90625q0 1.890625 -1.515625 3.03125q-1.515625 1.140625 -3.921875 1.140625q-1.6875 0 -3.0 -0.59375q-1.296875 -0.609375 -2.03125 -1.671875q-0.734375 -1.078125 -0.734375 -2.328125l2.40625 0q0.0625 1.203125 0.96875 1.921875q0.90625 0.703125 2.390625 0.703125q1.375 0 2.1875 -0.546875q0.828125 -0.5625 0.828125 -1.484375zm4.916504 -3.4375q0 -2.0625 0.8125 -3.71875q0.8125 -1.65625 2.265625 -2.546875q1.453125 -0.90625 3.3125 -0.90625q2.875 0 4.640625 2.0q1.78125 1.984375 1.78125 5.296875l0 0.15625q0 2.0625 -0.78125 3.703125q-0.78125 1.625 -2.25 2.546875q-1.46875 0.90625 -3.375 0.90625q-2.859375 0 -4.640625 -1.984375q-1.765625 -2.0 -1.765625 -5.28125l0 -0.171875zm2.421875 0.28125q0 2.34375 1.078125 3.765625q1.09375 1.421875 2.90625 1.421875q1.84375 0 2.921875 -1.4375q1.078125 -1.4375 1.078125 -4.03125q0 -2.3125 -1.109375 -3.75q-1.09375 -1.4375 -2.90625 -1.4375q-1.78125 0 -2.875 1.421875q-1.09375 1.40625 -1.09375 4.046875zm14.593018 6.890625l0 -12.21875l-2.21875 0l0 -1.859375l2.21875 0l0 -1.453125q0 -2.265625 1.203125 -3.5q1.21875 -1.234375 3.4375 -1.234375q0.828125 0 1.65625 0.21875l-0.140625 1.953125q-0.609375 -0.109375 -1.296875 -0.109375q-1.171875 0 -1.8125 0.6875q-0.625 0.671875 -0.625 1.953125l0 1.484375l3.0 0l0 1.859375l-3.0 0l0 12.21875l-2.421875 0zm11.347961 -17.5l0 3.421875l2.625 0l0 1.859375l-2.625 0l0 8.734375q0 0.84375 0.34375 1.265625q0.359375 0.421875 1.203125 0.421875q0.40625 0 1.140625 -0.15625l0 1.953125q-0.953125 0.265625 -1.84375 0.265625q-1.609375 0 -2.4375 -0.96875q-0.8125 -0.984375 -0.8125 -2.78125l0 -8.734375l-2.578125 0l0 -1.859375l2.578125 0l0 -3.421875l2.40625 0zm17.910645 14.1875l2.703125 -10.765625l2.40625 0l-4.09375 14.078125l-1.953125 0l-3.421875 -10.671875l-3.34375 10.671875l-1.953125 0l-4.078125 -14.078125l2.390625 0l2.78125 10.53125l3.265625 -10.53125l1.953125 0l3.34375 10.765625zm16.25 3.3125q-0.203125 -0.421875 -0.34375 -1.484375q-1.671875 1.75 -4.0 1.75q-2.078125 0 -3.421875 -1.171875q-1.328125 -1.1875 -1.328125 -3.0q0 -2.203125 1.671875 -3.40625q1.671875 -1.21875 4.703125 -1.21875l2.34375 0l0 -1.109375q0 -1.265625 -0.765625 -2.015625q-0.75 -0.75 -2.21875 -0.75q-1.28125 0 -2.15625 0.65625q-0.875 0.640625 -0.875 1.578125l-2.421875 0q0 -1.0625 0.75 -2.046875q0.75 -0.984375 2.03125 -1.546875q1.28125 -0.578125 2.8125 -0.578125q2.4375 0 3.8125 1.21875q1.390625 1.21875 1.4375 3.34375l0 6.484375q0 1.9375 0.5 3.09375l0 0.203125l-2.53125 0zm-4.0 -1.828125q1.140625 0 2.15625 -0.578125q1.015625 -0.59375 1.46875 -1.53125l0 -2.890625l-1.890625 0q-4.421875 0 -4.421875 2.578125q0 1.140625 0.75 1.78125q0.765625 0.640625 1.9375 0.640625zm16.608917 -10.09375q-0.546875 -0.09375 -1.1875 -0.09375q-2.359375 0 -3.203125 2.015625l0 10.0l-2.40625 0l0 -14.078125l2.34375 0l0.03125 1.625q1.1875 -1.890625 3.359375 -1.890625q0.703125 0 1.0625 0.1875l0 2.234375zm7.819397 12.1875q-2.875 0 -4.671875 -1.875q-1.796875 -1.890625 -1.796875 -5.046875l0 -0.4375q0 -2.09375 0.796875 -3.734375q0.8125 -1.65625 2.25 -2.578125q1.4375 -0.9375 3.109375 -0.9375q2.75 0 4.265625 1.8125q1.53125 1.8125 1.53125 5.171875l0 1.0l-9.53125 0q0.046875 2.09375 1.203125 3.375q1.171875 1.28125 2.96875 1.28125q1.28125 0 2.15625 -0.515625q0.890625 -0.53125 1.546875 -1.390625l1.484375 1.15625q-1.78125 2.71875 -5.3125 2.71875zm-0.3125 -12.625q-1.453125 0 -2.4375 1.0625q-0.984375 1.046875 -1.21875 2.96875l7.046875 0l0 -0.1875q-0.109375 -1.828125 -1.0 -2.828125q-0.875 -1.015625 -2.390625 -1.015625zm15.0961 4.671875q0 -2.953125 0.78125 -5.65625q0.796875 -2.703125 2.359375 -4.90625q1.5625 -2.21875 3.2344055 -3.140625l0.5 1.59375q-1.9062805 1.453125 -3.1250305 4.453125q-1.21875 2.984375 -1.328125 6.703125l-0.015625 1.109375q0 5.015625 1.828125 8.71875q1.109375 2.203125 2.6406555 3.453125l-0.5 1.484375q-1.7344055 -0.96875 -3.3125305 -3.234375q-3.0625 -4.421875 -3.0625 -10.578125zm22.673553 -9.203125l-6.09375 0l0 16.890625l-2.484375 0l0 -16.890625l-6.078125 0l0 -2.0625l14.65625 0l0 2.0625zm6.99115 17.15625q-2.875 0 -4.671875 -1.875q-1.796875 -1.890625 -1.796875 -5.046875l0 -0.4375q0 -2.09375 0.796875 -3.734375q0.8125 -1.65625 2.25 -2.578125q1.4375 -0.9375 3.109375 -0.9375q2.75 0 4.265625 1.8125q1.53125 1.8125 1.53125 5.171875l0 1.0l-9.53125 0q0.046875 2.09375 1.203125 3.375q1.171875 1.28125 2.96875 1.28125q1.28125 0 2.15625 -0.515625q0.890625 -0.53125 1.546875 -1.390625l1.484375 1.15625q-1.78125 2.71875 -5.3125 2.71875zm-0.3125 -12.625q-1.453125 0 -2.4375 1.0625q-0.984375 1.046875 -1.21875 2.96875l7.046875 0l0 -0.1875q-0.109375 -1.828125 -1.0 -2.828125q-0.875 -1.015625 -2.390625 -1.015625zm13.309631 3.421875l3.125 -5.140625l2.8125 0l-4.609375 6.953125l4.75 7.125l-2.78125 0l-3.25 -5.265625l-3.265625 5.265625l-2.796875 0l4.75 -7.125l-4.609375 -6.953125l2.796875 0l3.078125 5.140625zm11.757874 -8.5625l0 3.421875l2.625 0l0 1.859375l-2.625 0l0 8.734375q0 0.84375 0.34375 1.265625q0.359375 0.421875 1.203125 0.421875q0.40625 0 1.140625 -0.15625l0 1.953125q-0.953125 0.265625 -1.84375 0.265625q-1.609375 0 -2.4375 -0.96875q-0.8125 -0.984375 -0.8125 -2.78125l0 -8.734375l-2.578125 0l0 -1.859375l2.578125 0l0 -3.421875l2.40625 0zm11.285645 17.765625q-2.875 0 -4.671875 -1.875q-1.796875 -1.890625 -1.796875 -5.046875l0 -0.4375q0 -2.09375 0.796875 -3.734375q0.8125 -1.65625 2.25 -2.578125q1.4375 -0.9375 3.109375 -0.9375q2.75 0 4.265625 1.8125q1.53125 1.8125 1.53125 5.171875l0 1.0l-9.53125 0q0.046875 2.09375 1.203125 3.375q1.171875 1.28125 2.96875 1.28125q1.28125 0 2.15625 -0.515625q0.890625 -0.53125 1.546875 -1.390625l1.484375 1.15625q-1.78125 2.71875 -5.3125 2.71875zm-0.3125 -12.625q-1.453125 0 -2.4375 1.0625q-0.984375 1.046875 -1.21875 2.96875l7.046875 0l0 -0.1875q-0.109375 -1.828125 -1.0 -2.828125q-0.875 -1.015625 -2.390625 -1.015625zm7.9970703 5.203125q0 -3.25 1.53125 -5.21875q1.546875 -1.96875 4.03125 -1.96875q2.46875 0 3.921875 1.6875l0 -7.34375l2.40625 0l0 20.0l-2.21875 0l-0.109375 -1.515625q-1.453125 1.78125 -4.03125 1.78125q-2.4375 0 -3.984375 -2.0q-1.546875 -2.015625 -1.546875 -5.234375l0 -0.1875zm2.40625 0.265625q0 2.40625 0.984375 3.765625q1.0 1.34375 2.734375 1.34375q2.296875 0 3.359375 -2.0625l0 -6.46875q-1.09375 -1.984375 -3.328125 -1.984375q-1.765625 0 -2.765625 1.375q-0.984375 1.359375 -0.984375 4.03125zm15.830078 6.890625l-2.40625 0l0 -14.078125l2.40625 0l0 14.078125zm-2.609375 -17.8125q0 -0.59375 0.359375 -1.0q0.359375 -0.40625 1.0625 -0.40625q0.703125 0 1.0625 0.40625q0.375 0.40625 0.375 1.0q0 0.578125 -0.375 0.96875q-0.359375 0.390625 -1.0625 0.390625q-0.703125 0 -1.0625 -0.390625q-0.359375 -0.390625 -0.359375 -0.96875zm9.734436 0.3125l0 3.421875l2.625 0l0 1.859375l-2.625 0l0 8.734375q0 0.84375 0.34375 1.265625q0.359375 0.421875 1.203125 0.421875q0.40625 0 1.140625 -0.15625l0 1.953125q-0.953125 0.265625 -1.84375 0.265625q-1.609375 0 -2.4375 -0.96875q-0.8125 -0.984375 -0.8125 -2.78125l0 -8.734375l-2.578125 0l0 -1.859375l2.578125 0l0 -3.421875l2.40625 0zm11.400269 10.328125q0 -2.0625 0.8125 -3.71875q0.8125 -1.65625 2.265625 -2.546875q1.453125 -0.90625 3.3125 -0.90625q2.875 0 4.640625 2.0q1.78125 1.984375 1.78125 5.296875l0 0.15625q0 2.0625 -0.78125 3.703125q-0.78125 1.625 -2.25 2.546875q-1.46875 0.90625 -3.375 0.90625q-2.859375 0 -4.640625 -1.984375q-1.765625 -2.0 -1.765625 -5.28125l0 -0.171875zm2.421875 0.28125q0 2.34375 1.078125 3.765625q1.09375 1.421875 2.90625 1.421875q1.84375 0 2.921875 -1.4375q1.078125 -1.4375 1.078125 -4.03125q0 -2.3125 -1.109375 -3.75q-1.09375 -1.4375 -2.90625 -1.4375q-1.78125 0 -2.875 1.421875q-1.09375 1.40625 -1.09375 4.046875zm20.218018 -5.03125q-0.546875 -0.09375 -1.1875 -0.09375q-2.359375 0 -3.203125 2.015625l0 10.0l-2.40625 0l0 -14.078125l2.34375 0l0.03125 1.625q1.1875 -1.890625 3.359375 -1.890625q0.703125 0 1.0625 0.1875l0 2.234375zm23.759521 11.921875l-2.515625 0l-9.53125 -14.609375l0 14.609375l-2.515625 0l0 -18.953125l2.515625 0l9.5625 14.671875l0 -14.671875l2.484375 0l0 18.953125zm3.4248657 -7.171875q0 -2.0625 0.8125 -3.71875q0.8125 -1.65625 2.265625 -2.546875q1.453125 -0.90625 3.3125 -0.90625q2.875 0 4.640625 2.0q1.78125 1.984375 1.78125 5.296875l0 0.15625q0 2.0625 -0.78125 3.703125q-0.78125 1.625 -2.25 2.546875q-1.46875 0.90625 -3.375 0.90625q-2.859375 0 -4.640625 -1.984375q-1.765625 -2.0 -1.765625 -5.28125l0 -0.171875zm2.421875 0.28125q0 2.34375 1.078125 3.765625q1.09375 1.421875 2.90625 1.421875q1.84375 0 2.921875 -1.4375q1.078125 -1.4375 1.078125 -4.03125q0 -2.3125 -1.109375 -3.75q-1.09375 -1.4375 -2.90625 -1.4375q-1.78125 0 -2.875 1.421875q-1.09375 1.40625 -1.09375 4.046875zm16.686768 -10.609375l0 3.421875l2.625 0l0 1.859375l-2.625 0l0 8.734375q0 0.84375 0.34375 1.265625q0.359375 0.421875 1.203125 0.421875q0.40625 0 1.140625 -0.15625l0 1.953125q-0.953125 0.265625 -1.84375 0.265625q-1.609375 0 -2.4375 -0.96875q-0.8125 -0.984375 -0.8125 -2.78125l0 -8.734375l-2.578125 0l0 -1.859375l2.578125 0l0 -3.421875l2.40625 0zm11.285645 17.765625q-2.875 0 -4.671875 -1.875q-1.796875 -1.890625 -1.796875 -5.046875l0 -0.4375q0 -2.09375 0.796875 -3.734375q0.8125 -1.65625 2.25 -2.578125q1.4375 -0.9375 3.109375 -0.9375q2.75 0 4.265625 1.8125q1.53125 1.8125 1.53125 5.171875l0 1.0l-9.53125 0q0.046875 2.09375 1.203125 3.375q1.171875 1.28125 2.96875 1.28125q1.28125 0 2.15625 -0.515625q0.890625 -0.53125 1.546875 -1.390625l1.484375 1.15625q-1.78125 2.71875 -5.3125 2.71875zm-0.3125 -12.625q-1.453125 0 -2.4375 1.0625q-0.984375 1.046875 -1.21875 2.96875l7.046875 0l0 -0.1875q-0.109375 -1.828125 -1.0 -2.828125q-0.875 -1.015625 -2.390625 -1.015625zm20.481445 5.46875q0 3.21875 -1.46875 5.1875q-1.46875 1.96875 -3.984375 1.96875q-2.5625 0 -4.03125 -1.625l0 6.78125l-2.40625 0l0 -19.5l2.1875 0l0.125 1.5625q1.46875 -1.828125 4.078125 -1.828125q2.546875 0 4.015625 1.921875q1.484375 1.90625 1.484375 5.3125l0 0.21875zm-2.40625 -0.265625q0 -2.390625 -1.015625 -3.765625q-1.015625 -1.375 -2.78125 -1.375q-2.1875 0 -3.28125 1.9375l0 6.734375q1.078125 1.921875 3.296875 1.921875q1.734375 0 2.75 -1.375q1.03125 -1.375 1.03125 -4.078125zm14.158203 7.15625q-0.203125 -0.421875 -0.34375 -1.484375q-1.671875 1.75 -4.0 1.75q-2.078125 0 -3.421875 -1.171875q-1.328125 -1.1875 -1.328125 -3.0q0 -2.203125 1.671875 -3.40625q1.671875 -1.21875 4.703125 -1.21875l2.34375 0l0 -1.109375q0 -1.265625 -0.765625 -2.015625q-0.75 -0.75 -2.21875 -0.75q-1.28125 0 -2.15625 0.65625q-0.875 0.640625 -0.875 1.578125l-2.421875 0q0 -1.0625 0.75 -2.046875q0.75 -0.984375 2.03125 -1.546875q1.28125 -0.578125 2.8125 -0.578125q2.4375 0 3.8125 1.21875q1.390625 1.21875 1.4375 3.34375l0 6.484375q0 1.9375 0.5 3.09375l0 0.203125l-2.53125 0zm-4.0 -1.828125q1.140625 0 2.15625 -0.578125q1.015625 -0.59375 1.46875 -1.53125l0 -2.890625l-1.890625 0q-4.421875 0 -4.421875 2.578125q0 1.140625 0.75 1.78125q0.765625 0.640625 1.9375 0.640625zm9.218323 -5.328125q0 -3.25 1.53125 -5.21875q1.546875 -1.96875 4.03125 -1.96875q2.46875 0 3.921875 1.6875l0 -7.34375l2.40625 0l0 20.0l-2.21875 0l-0.109375 -1.515625q-1.453125 1.78125 -4.03125 1.78125q-2.4375 0 -3.984375 -2.0q-1.546875 -2.015625 -1.546875 -5.234375l0 -0.1875zm2.40625 0.265625q0 2.40625 0.984375 3.765625q1.0 1.34375 2.734375 1.34375q2.296875 0 3.359375 -2.0625l0 -6.46875q-1.09375 -1.984375 -3.328125 -1.984375q-1.765625 0 -2.765625 1.375q-0.984375 1.359375 -0.984375 4.03125zm18.767578 -0.671875q0 2.90625 -0.765625 5.5625q-0.75 2.65625 -2.328125 4.90625q-1.5625 2.265625 -3.28125 3.21875l-0.5 -1.484375q2.0 -1.53125 3.21875 -4.765625q1.21875 -3.234375 1.234375 -7.171875l0 -0.421875q0 -2.734375 -0.578125 -5.078125q-0.5625 -2.359375 -1.59375 -4.21875q-1.015625 -1.859375 -2.28125 -2.90625l0.5 -1.46875q1.71875 0.953125 3.265625 3.1875q1.5625 2.21875 2.328125 4.90625q0.78125 2.671875 0.78125 5.734375z" fill-rule="nonzero"/><path fill="#000000" d="m90.69168 327.52322q1.421875 0 2.796875 0.75q1.390625 0.734375 2.15625 2.125q0.765625 1.375 0.765625 2.859375q0 2.375 -1.6875 4.0625q-1.671875 1.671875 -4.03125 1.671875q-2.390625 0 -4.078125 -1.671875q-1.671875 -1.6875 -1.671875 -4.0625q0 -1.5 0.765625 -2.875q0.78125 -1.375 2.15625 -2.109375q1.375 -0.75 2.828125 -0.75z" fill-rule="nonzero"/><path fill="#000000" d="m135.40154 335.8201l-7.953125 0l-1.78125 4.953125l-2.578125 0l7.234375 -18.953125l2.1875 0l7.25 18.953125l-2.5625 0l-1.796875 -4.953125zm-7.1875 -2.046875l6.4375 0l-3.234375 -8.859375l-3.203125 8.859375zm25.654663 0.109375q0 3.234375 -1.484375 5.203125q-1.484375 1.953125 -3.984375 1.953125q-2.671875 0 -4.125 -1.890625l-0.125 1.625l-2.203125 0l0 -20.0l2.40625 0l0 7.46875q1.453125 -1.8125 4.015625 -1.8125q2.5625 0 4.03125 1.9375q1.46875 1.9375 1.46875 5.3125l0 0.203125zm-2.40625 -0.265625q0 -2.46875 -0.953125 -3.796875q-0.953125 -1.34375 -2.734375 -1.34375q-2.390625 0 -3.421875 2.203125l0 6.09375q1.109375 2.21875 3.4375 2.21875q1.734375 0 2.703125 -1.34375q0.96875 -1.34375 0.96875 -4.03125zm8.048843 7.15625l-2.40625 0l0 -14.078125l2.40625 0l0 14.078125zm-2.609375 -17.8125q0 -0.59375 0.359375 -1.0q0.359375 -0.40625 1.0625 -0.40625q0.703125 0 1.0625 0.40625q0.375 0.40625 0.375 1.0q0 0.578125 -0.375 0.96875q-0.359375 0.390625 -1.0625 0.390625q-0.703125 0 -1.0625 -0.390625q-0.359375 -0.390625 -0.359375 -0.96875zm9.078201 17.8125l-2.40625 0l0 -20.0l2.40625 0l0 20.0zm6.4688263 0l-2.40625 0l0 -14.078125l2.40625 0l0 14.078125zm-2.609375 -17.8125q0 -0.59375 0.359375 -1.0q0.359375 -0.40625 1.0625 -0.40625q0.703125 0 1.0625 0.40625q0.375 0.40625 0.375 1.0q0 0.578125 -0.375 0.96875q-0.359375 0.390625 -1.0625 0.390625q-0.703125 0 -1.0625 -0.390625q-0.359375 -0.390625 -0.359375 -0.96875zm9.734451 0.3125l0 3.421875l2.625 0l0 1.859375l-2.625 0l0 8.734375q0 0.84375 0.34375 1.265625q0.359375 0.421875 1.203125 0.421875q0.40625 0 1.140625 -0.15625l0 1.953125q-0.953125 0.265625 -1.84375 0.265625q-1.609375 0 -2.4375 -0.96875q-0.8125 -0.984375 -0.8125 -2.78125l0 -8.734375l-2.578125 0l0 -1.859375l2.578125 0l0 -3.421875l2.40625 0zm10.051285 13.96875l3.265625 -10.546875l2.578125 0l-5.65625 16.25q-1.3125 3.515625 -4.171875 3.515625l-0.46875 -0.03125l-0.890625 -0.171875l0 -1.953125l0.65625 0.046875q1.21875 0 1.890625 -0.5q0.6875 -0.484375 1.140625 -1.796875l0.53125 -1.4375l-5.03125 -13.921875l2.640625 0l3.515625 10.546875zm17.867493 -13.96875l0 3.421875l2.625 0l0 1.859375l-2.625 0l0 8.734375q0 0.84375 0.34375 1.265625q0.359375 0.421875 1.203125 0.421875q0.40625 0 1.140625 -0.15625l0 1.953125q-0.953125 0.265625 -1.84375 0.265625q-1.609375 0 -2.4375 -0.96875q-0.8125 -0.984375 -0.8125 -2.78125l0 -8.734375l-2.578125 0l0 -1.859375l2.578125 0l0 -3.421875l2.40625 0zm4.540863 10.328125q0 -2.0625 0.8125 -3.71875q0.8125 -1.65625 2.265625 -2.546875q1.453125 -0.90625 3.3125 -0.90625q2.875 0 4.640625 2.0q1.78125 1.984375 1.78125 5.296875l0 0.15625q0 2.0625 -0.78125 3.703125q-0.78125 1.625 -2.25 2.546875q-1.46875 0.90625 -3.375 0.90625q-2.859375 0 -4.640625 -1.984375q-1.765625 -2.0 -1.765625 -5.28125l0 -0.171875zm2.421875 0.28125q0 2.34375 1.078125 3.765625q1.09375 1.421875 2.90625 1.421875q1.84375 0 2.921875 -1.4375q1.078125 -1.4375 1.078125 -4.03125q0 -2.3125 -1.109375 -3.75q-1.09375 -1.4375 -2.90625 -1.4375q-1.78125 0 -2.875 1.421875q-1.09375 1.40625 -1.09375 4.046875zm25.660751 5.1875q1.296875 0 2.25 -0.78125q0.96875 -0.78125 1.078125 -1.953125l2.265625 0q-0.0625 1.203125 -0.828125 2.296875q-0.765625 1.09375 -2.046875 1.75q-1.28125 0.65625 -2.71875 0.65625q-2.875 0 -4.578125 -1.921875q-1.6875 -1.921875 -1.6875 -5.25l0 -0.40625q0 -2.0625 0.75 -3.65625q0.75 -1.609375 2.15625 -2.484375q1.421875 -0.890625 3.34375 -0.890625q2.375 0 3.9375 1.421875q1.578125 1.421875 1.671875 3.6875l-2.265625 0q-0.109375 -1.375 -1.046875 -2.25q-0.921875 -0.875 -2.296875 -0.875q-1.828125 0 -2.84375 1.328125q-1.0 1.3125 -1.0 3.8125l0 0.453125q0 2.4375 1.0 3.75q1.0 1.3125 2.859375 1.3125zm15.109131 -10.21875q-0.546875 -0.09375 -1.1875 -0.09375q-2.359375 0 -3.203125 2.015625l0 10.0l-2.40625 0l0 -14.078125l2.34375 0l0.03125 1.625q1.1875 -1.890625 3.359375 -1.890625q0.703125 0 1.0625 0.1875l0 2.234375zm7.8193817 12.1875q-2.875 0 -4.671875 -1.875q-1.796875 -1.890625 -1.796875 -5.046875l0 -0.4375q0 -2.09375 0.796875 -3.734375q0.8125 -1.65625 2.25 -2.578125q1.4375 -0.9375 3.109375 -0.9375q2.75 0 4.265625 1.8125q1.53125 1.8125 1.53125 5.171875l0 1.0l-9.53125 0q0.046875 2.09375 1.203125 3.375q1.171875 1.28125 2.96875 1.28125q1.28125 0 2.15625 -0.515625q0.890625 -0.53125 1.546875 -1.390625l1.484375 1.15625q-1.78125 2.71875 -5.3125 2.71875zm-0.3125 -12.625q-1.453125 0 -2.4375 1.0625q-0.984375 1.046875 -1.21875 2.96875l7.046875 0l0 -0.1875q-0.109375 -1.828125 -1.0 -2.828125q-0.875 -1.015625 -2.390625 -1.015625zm17.27835 12.359375q-0.203125 -0.421875 -0.34375 -1.484375q-1.671875 1.75 -4.0 1.75q-2.078125 0 -3.421875 -1.171875q-1.328125 -1.1875 -1.328125 -3.0q0 -2.203125 1.671875 -3.40625q1.671875 -1.21875 4.703125 -1.21875l2.34375 0l0 -1.109375q0 -1.265625 -0.765625 -2.015625q-0.75 -0.75 -2.21875 -0.75q-1.28125 0 -2.15625 0.65625q-0.875 0.640625 -0.875 1.578125l-2.421875 0q0 -1.0625 0.75 -2.046875q0.75 -0.984375 2.03125 -1.546875q1.28125 -0.578125 2.8125 -0.578125q2.4375 0 3.8125 1.21875q1.390625 1.21875 1.4375 3.34375l0 6.484375q0 1.9375 0.5 3.09375l0 0.203125l-2.53125 0zm-4.0 -1.828125q1.140625 0 2.15625 -0.578125q1.015625 -0.59375 1.46875 -1.53125l0 -2.890625l-1.890625 0q-4.421875 0 -4.421875 2.578125q0 1.140625 0.75 1.78125q0.765625 0.640625 1.9375 0.640625zm13.077667 -15.671875l0 3.421875l2.625 0l0 1.859375l-2.625 0l0 8.734375q0 0.84375 0.34375 1.265625q0.359375 0.421875 1.203125 0.421875q0.40625 0 1.140625 -0.15625l0 1.953125q-0.953125 0.265625 -1.84375 0.265625q-1.609375 0 -2.4375 -0.96875q-0.8125 -0.984375 -0.8125 -2.78125l0 -8.734375l-2.578125 0l0 -1.859375l2.578125 0l0 -3.421875l2.40625 0zm11.285645 17.765625q-2.875 0 -4.671875 -1.875q-1.796875 -1.890625 -1.796875 -5.046875l0 -0.4375q0 -2.09375 0.796875 -3.734375q0.8125 -1.65625 2.25 -2.578125q1.4375 -0.9375 3.109375 -0.9375q2.75 0 4.265625 1.8125q1.53125 1.8125 1.53125 5.171875l0 1.0l-9.53125 0q0.046875 2.09375 1.203125 3.375q1.171875 1.28125 2.96875 1.28125q1.28125 0 2.15625 -0.515625q0.890625 -0.53125 1.546875 -1.390625l1.484375 1.15625q-1.78125 2.71875 -5.3125 2.71875zm-0.3125 -12.625q-1.453125 0 -2.4375 1.0625q-0.984375 1.046875 -1.21875 2.96875l7.046875 0l0 -0.1875q-0.109375 -1.828125 -1.0 -2.828125q-0.875 -1.015625 -2.390625 -1.015625zm23.87732 12.359375q-0.203125 -0.421875 -0.34375 -1.484375q-1.671875 1.75 -4.0 1.75q-2.078125 0 -3.421875 -1.171875q-1.328125 -1.1875 -1.328125 -3.0q0 -2.203125 1.671875 -3.40625q1.671875 -1.21875 4.703125 -1.21875l2.34375 0l0 -1.109375q0 -1.265625 -0.765625 -2.015625q-0.75 -0.75 -2.21875 -0.75q-1.28125 0 -2.15625 0.65625q-0.875 0.640625 -0.875 1.578125l-2.421875 0q0 -1.0625 0.75 -2.046875q0.75 -0.984375 2.03125 -1.546875q1.28125 -0.578125 2.8125 -0.578125q2.4375 0 3.8125 1.21875q1.390625 1.21875 1.4375 3.34375l0 6.484375q0 1.9375 0.5 3.09375l0 0.203125l-2.53125 0zm-4.0 -1.828125q1.140625 0 2.15625 -0.578125q1.015625 -0.59375 1.46875 -1.53125l0 -2.890625l-1.890625 0q-4.421875 0 -4.421875 2.578125q0 1.140625 0.75 1.78125q0.765625 0.640625 1.9375 0.640625zm12.077667 -12.25l0.078125 1.765625q1.625 -2.03125 4.21875 -2.03125q4.46875 0 4.515625 5.03125l0 9.3125l-2.421875 0l0 -9.3125q0 -1.53125 -0.6875 -2.25q-0.6875 -0.734375 -2.125 -0.734375q-1.171875 0 -2.0625 0.625q-0.890625 0.625 -1.375 1.640625l0 10.03125l-2.40625 0l0 -14.078125l2.265625 0zm11.848419 6.921875q0 -3.25 1.53125 -5.21875q1.546875 -1.96875 4.03125 -1.96875q2.46875 0 3.921875 1.6875l0 -7.34375l2.40625 0l0 20.0l-2.21875 0l-0.109375 -1.515625q-1.453125 1.78125 -4.03125 1.78125q-2.4375 0 -3.984375 -2.0q-1.546875 -2.015625 -1.546875 -5.234375l0 -0.1875zm2.40625 0.265625q0 2.40625 0.984375 3.765625q1.0 1.34375 2.734375 1.34375q2.296875 0 3.359375 -2.0625l0 -6.46875q-1.09375 -1.984375 -3.328125 -1.984375q-1.765625 0 -2.765625 1.375q-0.984375 1.359375 -0.984375 4.03125zm28.007172 3.15625q0 -0.984375 -0.734375 -1.515625q-0.734375 -0.546875 -2.5625 -0.9375q-1.828125 -0.390625 -2.90625 -0.9375q-1.0625 -0.546875 -1.578125 -1.296875q-0.515625 -0.75 -0.515625 -1.796875q0 -1.734375 1.453125 -2.921875q1.46875 -1.203125 3.75 -1.203125q2.390625 0 3.875 1.234375q1.5 1.234375 1.5 3.171875l-2.421875 0q0 -1.0 -0.84375 -1.703125q-0.828125 -0.71875 -2.109375 -0.71875q-1.3125 0 -2.0625 0.578125q-0.734375 0.5625 -0.734375 1.484375q0 0.875 0.6875 1.328125q0.6875 0.4375 2.484375 0.84375q1.8125 0.390625 2.921875 0.953125q1.125 0.5625 1.671875 1.359375q0.546875 0.78125 0.546875 1.90625q0 1.890625 -1.515625 3.03125q-1.515625 1.140625 -3.921875 1.140625q-1.6875 0 -3.0 -0.59375q-1.296875 -0.609375 -2.03125 -1.671875q-0.734375 -1.078125 -0.734375 -2.328125l2.40625 0q0.0625 1.203125 0.96875 1.921875q0.90625 0.703125 2.390625 0.703125q1.375 0 2.1875 -0.546875q0.828125 -0.5625 0.828125 -1.484375zm14.244629 3.734375q-0.203125 -0.421875 -0.34375 -1.484375q-1.671875 1.75 -4.0 1.75q-2.078125 0 -3.421875 -1.171875q-1.328125 -1.1875 -1.328125 -3.0q0 -2.203125 1.671875 -3.40625q1.671875 -1.21875 4.703125 -1.21875l2.34375 0l0 -1.109375q0 -1.265625 -0.765625 -2.015625q-0.75 -0.75 -2.21875 -0.75q-1.28125 0 -2.15625 0.65625q-0.875 0.640625 -0.875 1.578125l-2.421875 0q0 -1.0625 0.75 -2.046875q0.75 -0.984375 2.03125 -1.546875q1.28125 -0.578125 2.8125 -0.578125q2.4375 0 3.8125 1.21875q1.390625 1.21875 1.4375 3.34375l0 6.484375q0 1.9375 0.5 3.09375l0 0.203125l-2.53125 0zm-4.0 -1.828125q1.140625 0 2.15625 -0.578125q1.015625 -0.59375 1.46875 -1.53125l0 -2.890625l-1.890625 0q-4.421875 0 -4.421875 2.578125q0 1.140625 0.75 1.78125q0.765625 0.640625 1.9375 0.640625zm14.257355 -1.4375l3.484375 -10.8125l2.46875 0l-5.0625 14.078125l-1.828125 0l-5.109375 -14.078125l2.46875 0l3.578125 10.8125zm13.945465 3.53125q-2.875 0 -4.671875 -1.875q-1.796875 -1.890625 -1.796875 -5.046875l0 -0.4375q0 -2.09375 0.796875 -3.734375q0.8125 -1.65625 2.25 -2.578125q1.4375 -0.9375 3.109375 -0.9375q2.75 0 4.265625 1.8125q1.53125 1.8125 1.53125 5.171875l0 1.0l-9.53125 0q0.046875 2.09375 1.203125 3.375q1.171875 1.28125 2.96875 1.28125q1.28125 0 2.15625 -0.515625q0.890625 -0.53125 1.546875 -1.390625l1.484375 1.15625q-1.78125 2.71875 -5.3125 2.71875zm-0.3125 -12.625q-1.453125 0 -2.4375 1.0625q-0.984375 1.046875 -1.21875 2.96875l7.046875 0l0 -0.1875q-0.109375 -1.828125 -1.0 -2.828125q-0.875 -1.015625 -2.390625 -1.015625zm15.986694 12.359375l0 -12.21875l-2.21875 0l0 -1.859375l2.21875 0l0 -1.203125q0 -2.359375 1.34375 -3.671875q1.359375 -1.3125 3.8125 -1.3125q1.453125 0 3.6875 0.796875l-0.40625 2.03125q-1.625 -0.65625 -3.09375 -0.65625q-1.546875 0 -2.234375 0.703125q-0.6875 0.6875 -0.6875 2.078125l0 1.234375l2.875 0l0 1.859375l-2.875 0l0 12.21875l-2.421875 0zm10.046875 0l-2.421875 0l0 -14.078125l2.421875 0l0 14.078125zm6.525482 0l-2.40625 0l0 -20.0l2.40625 0l0 20.0zm9.703217 0.265625q-2.875 0 -4.671875 -1.875q-1.796875 -1.890625 -1.796875 -5.046875l0 -0.4375q0 -2.09375 0.796875 -3.734375q0.8125 -1.65625 2.25 -2.578125q1.4375 -0.9375 3.109375 -0.9375q2.75 0 4.265625 1.8125q1.53125 1.8125 1.53125 5.171875l0 1.0l-9.53125 0q0.046875 2.09375 1.203125 3.375q1.171875 1.28125 2.96875 1.28125q1.28125 0 2.15625 -0.515625q0.890625 -0.53125 1.546875 -1.390625l1.484375 1.15625q-1.78125 2.71875 -5.3125 2.71875zm-0.3125 -12.625q-1.453125 0 -2.4375 1.0625q-0.984375 1.046875 -1.21875 2.96875l7.046875 0l0 -0.1875q-0.109375 -1.828125 -1.0 -2.828125q-0.875 -1.015625 -2.390625 -1.015625zm16.77832 8.625q0 -0.984375 -0.734375 -1.515625q-0.734375 -0.546875 -2.5625 -0.9375q-1.828125 -0.390625 -2.90625 -0.9375q-1.0625 -0.546875 -1.578125 -1.296875q-0.515625 -0.75 -0.515625 -1.796875q0 -1.734375 1.453125 -2.921875q1.46875 -1.203125 3.75 -1.203125q2.390625 0 3.875 1.234375q1.5 1.234375 1.5 3.171875l-2.421875 0q0 -1.0 -0.84375 -1.703125q-0.828125 -0.71875 -2.109375 -0.71875q-1.3125 0 -2.0625 0.578125q-0.734375 0.5625 -0.734375 1.484375q0 0.875 0.6875 1.328125q0.6875 0.4375 2.484375 0.84375q1.8125 0.390625 2.921875 0.953125q1.125 0.5625 1.671875 1.359375q0.546875 0.78125 0.546875 1.90625q0 1.890625 -1.515625 3.03125q-1.515625 1.140625 -3.921875 1.140625q-1.6875 0 -3.0 -0.59375q-1.296875 -0.609375 -2.03125 -1.671875q-0.734375 -1.078125 -0.734375 -2.328125l2.40625 0q0.0625 1.203125 0.96875 1.921875q0.90625 0.703125 2.390625 0.703125q1.375 0 2.1875 -0.546875q0.828125 -0.5625 0.828125 -1.484375zm11.515503 -3.4375q0 -2.0625 0.8125 -3.71875q0.8125 -1.65625 2.265625 -2.546875q1.453125 -0.90625 3.3125 -0.90625q2.875 0 4.640625 2.0q1.78125 1.984375 1.78125 5.296875l0 0.15625q0 2.0625 -0.78125 3.703125q-0.78125 1.625 -2.25 2.546875q-1.46875 0.90625 -3.375 0.90625q-2.859375 0 -4.640625 -1.984375q-1.765625 -2.0 -1.765625 -5.28125l0 -0.171875zm2.421875 0.28125q0 2.34375 1.078125 3.765625q1.09375 1.421875 2.90625 1.421875q1.84375 0 2.921875 -1.4375q1.078125 -1.4375 1.078125 -4.03125q0 -2.3125 -1.109375 -3.75q-1.09375 -1.4375 -2.90625 -1.4375q-1.78125 0 -2.875 1.421875q-1.09375 1.40625 -1.09375 4.046875zm15.686768 -7.1875l0.078125 1.765625q1.625 -2.03125 4.21875 -2.03125q4.46875 0 4.515625 5.03125l0 9.3125l-2.421875 0l0 -9.3125q0 -1.53125 -0.6875 -2.25q-0.6875 -0.734375 -2.125 -0.734375q-1.171875 0 -2.0625 0.625q-0.890625 0.625 -1.375 1.640625l0 10.03125l-2.40625 0l0 -14.078125l2.265625 0zm23.650543 10.546875l3.265625 -10.546875l2.578125 0l-5.65625 16.25q-1.3125 3.515625 -4.171875 3.515625l-0.46875 -0.03125l-0.890625 -0.171875l0 -1.953125l0.65625 0.046875q1.21875 0 1.890625 -0.5q0.6875 -0.484375 1.140625 -1.796875l0.53125 -1.4375l-5.03125 -13.921875l2.640625 0l3.515625 10.546875zm7.166931 -3.640625q0 -2.0625 0.8125 -3.71875q0.8125 -1.65625 2.265625 -2.546875q1.453125 -0.90625 3.3125 -0.90625q2.875 0 4.640625 2.0q1.78125 1.984375 1.78125 5.296875l0 0.15625q0 2.0625 -0.78125 3.703125q-0.78125 1.625 -2.25 2.546875q-1.46875 0.90625 -3.375 0.90625q-2.859375 0 -4.640625 -1.984375q-1.765625 -2.0 -1.765625 -5.28125l0 -0.171875zm2.421875 0.28125q0 2.34375 1.078125 3.765625q1.09375 1.421875 2.90625 1.421875q1.84375 0 2.921875 -1.4375q1.078125 -1.4375 1.078125 -4.03125q0 -2.3125 -1.109375 -3.75q-1.09375 -1.4375 -2.90625 -1.4375q-1.78125 0 -2.875 1.421875q-1.09375 1.40625 -1.09375 4.046875zm22.108643 5.5q-1.40625 1.65625 -4.125 1.65625q-2.25 0 -3.4375 -1.3125q-1.171875 -1.3125 -1.1875 -3.875l0 -9.15625l2.40625 0l0 9.09375q0 3.203125 2.609375 3.203125q2.765625 0 3.671875 -2.0625l0 -10.234375l2.40625 0l0 14.078125l-2.296875 0l-0.046875 -1.390625zm12.804138 -10.53125q-0.546875 -0.09375 -1.1875 -0.09375q-2.359375 0 -3.203125 2.015625l0 10.0l-2.40625 0l0 -14.078125l2.34375 0l0.03125 1.625q1.1875 -1.890625 3.359375 -1.890625q0.703125 0 1.0625 0.1875l0 2.234375zm8.2282715 4.765625q0 -3.25 1.53125 -5.21875q1.546875 -1.96875 4.03125 -1.96875q2.46875 0 3.921875 1.6875l0 -7.34375l2.40625 0l0 20.0l-2.21875 0l-0.109375 -1.515625q-1.453125 1.78125 -4.03125 1.78125q-2.4375 0 -3.984375 -2.0q-1.546875 -2.015625 -1.546875 -5.234375l0 -0.1875zm2.40625 0.265625q0 2.40625 0.984375 3.765625q1.0 1.34375 2.734375 1.34375q2.296875 0 3.359375 -2.0625l0 -6.46875q-1.09375 -1.984375 -3.328125 -1.984375q-1.765625 0 -2.765625 1.375q-0.984375 1.359375 -0.984375 4.03125zm19.064453 7.15625q-2.875 0 -4.671875 -1.875q-1.796875 -1.890625 -1.796875 -5.046875l0 -0.4375q0 -2.09375 0.796875 -3.734375q0.8125 -1.65625 2.25 -2.578125q1.4375 -0.9375 3.109375 -0.9375q2.75 0 4.265625 1.8125q1.53125 1.8125 1.53125 5.171875l0 1.0l-9.53125 0q0.046875 2.09375 1.203125 3.375q1.171875 1.28125 2.96875 1.28125q1.28125 0 2.15625 -0.515625q0.890625 -0.53125 1.546875 -1.390625l1.484375 1.15625q-1.78125 2.71875 -5.3125 2.71875zm-0.3125 -12.625q-1.453125 0 -2.4375 1.0625q-0.984375 1.046875 -1.21875 2.96875l7.046875 0l0 -0.1875q-0.109375 -1.828125 -1.0 -2.828125q-0.875 -1.015625 -2.390625 -1.015625zm16.77832 8.625q0 -0.984375 -0.734375 -1.515625q-0.734375 -0.546875 -2.5625 -0.9375q-1.828125 -0.390625 -2.90625 -0.9375q-1.0625 -0.546875 -1.578125 -1.296875q-0.515625 -0.75 -0.515625 -1.796875q0 -1.734375 1.453125 -2.921875q1.46875 -1.203125 3.75 -1.203125q2.390625 0 3.875 1.234375q1.5 1.234375 1.5 3.171875l-2.421875 0q0 -1.0 -0.84375 -1.703125q-0.828125 -0.71875 -2.109375 -0.71875q-1.3125 0 -2.0625 0.578125q-0.734375 0.5625 -0.734375 1.484375q0 0.875 0.6875 1.328125q0.6875 0.4375 2.484375 0.84375q1.8125 0.390625 2.921875 0.953125q1.125 0.5625 1.671875 1.359375q0.546875 0.78125 0.546875 1.90625q0 1.890625 -1.515625 3.03125q-1.515625 1.140625 -3.921875 1.140625q-1.6875 0 -3.0 -0.59375q-1.296875 -0.609375 -2.03125 -1.671875q-0.734375 -1.078125 -0.734375 -2.328125l2.40625 0q0.0625 1.203125 0.96875 1.921875q0.90625 0.703125 2.390625 0.703125q1.375 0 2.1875 -0.546875q0.828125 -0.5625 0.828125 -1.484375zm9.479004 -2.78125l-1.5 1.5625l0 4.953125l-2.421875 0l0 -20.0l2.421875 0l0 12.09375l1.28125 -1.546875l4.390625 -4.625l2.921875 0l-5.484375 5.875l6.125 8.203125l-2.828125 0l-4.90625 -6.515625zm12.854065 -10.984375l0 3.421875l2.625 0l0 1.859375l-2.625 0l0 8.734375q0 0.84375 0.34375 1.265625q0.359375 0.421875 1.203125 0.421875q0.40625 0 1.140625 -0.15625l0 1.953125q-0.953125 0.265625 -1.84375 0.265625q-1.609375 0 -2.4375 -0.96875q-0.8125 -0.984375 -0.8125 -2.78125l0 -8.734375l-2.578125 0l0 -1.859375l2.578125 0l0 -3.421875l2.40625 0zm4.5408936 10.328125q0 -2.0625 0.8125 -3.71875q0.8125 -1.65625 2.265625 -2.546875q1.453125 -0.90625 3.3125 -0.90625q2.875 0 4.640625 2.0q1.78125 1.984375 1.78125 5.296875l0 0.15625q0 2.0625 -0.78125 3.703125q-0.78125 1.625 -2.25 2.546875q-1.46875 0.90625 -3.375 0.90625q-2.859375 0 -4.640625 -1.984375q-1.765625 -2.0 -1.765625 -5.28125l0 -0.171875zm2.421875 0.28125q0 2.34375 1.078125 3.765625q1.09375 1.421875 2.90625 1.421875q1.84375 0 2.921875 -1.4375q1.078125 -1.4375 1.078125 -4.03125q0 -2.3125 -1.109375 -3.75q-1.09375 -1.4375 -2.90625 -1.4375q-1.78125 0 -2.875 1.421875q-1.09375 1.40625 -1.09375 4.046875zm25.311768 0q0 3.21875 -1.46875 5.1875q-1.46875 1.96875 -3.984375 1.96875q-2.5625 0 -4.03125 -1.625l0 6.78125l-2.40625 0l0 -19.5l2.1875 0l0.125 1.5625q1.46875 -1.828125 4.078125 -1.828125q2.546875 0 4.015625 1.921875q1.484375 1.90625 1.484375 5.3125l0 0.21875zm-2.40625 -0.265625q0 -2.390625 -1.015625 -3.765625q-1.015625 -1.375 -2.78125 -1.375q-2.1875 0 -3.28125 1.9375l0 6.734375q1.078125 1.921875 3.296875 1.921875q1.734375 0 2.75 -1.375q1.03125 -1.375 1.03125 -4.078125z" fill-rule="nonzero"/><path fill="#000000" d="m90.69168 359.52322q1.421875 0 2.796875 0.75q1.390625 0.734375 2.15625 2.125q0.765625 1.375 0.765625 2.859375q0 2.375 -1.6875 4.0625q-1.671875 1.671875 -4.03125 1.671875q-2.390625 0 -4.078125 -1.671875q-1.671875 -1.6875 -1.671875 -4.0625q0 -1.5 0.765625 -2.875q0.78125 -1.375 2.15625 -2.109375q1.375 -0.75 2.828125 -0.75z" fill-rule="nonzero"/><path fill="#000000" d="m135.40154 367.8201l-7.953125 0l-1.78125 4.953125l-2.578125 0l7.234375 -18.953125l2.1875 0l7.25 18.953125l-2.5625 0l-1.796875 -4.953125zm-7.1875 -2.046875l6.4375 0l-3.234375 -8.859375l-3.203125 8.859375zm22.941147 7.0l-2.40625 0l0 -20.0l2.40625 0l0 20.0zm6.4688263 0l-2.40625 0l0 -14.078125l2.40625 0l0 14.078125zm-2.609375 -17.8125q0 -0.59375 0.359375 -1.0q0.359375 -0.40625 1.0625 -0.40625q0.703125 0 1.0625 0.40625q0.375 0.40625 0.375 1.0q0 0.578125 -0.375 0.96875q-0.359375 0.390625 -1.0625 0.390625q-0.703125 0 -1.0625 -0.390625q-0.359375 -0.390625 -0.359375 -0.96875zm9.734451 0.3125l0 3.421875l2.625 0l0 1.859375l-2.625 0l0 8.734375q0 0.84375 0.34375 1.265625q0.359375 0.421875 1.203125 0.421875q0.40625 0 1.140625 -0.15625l0 1.953125q-0.953125 0.265625 -1.84375 0.265625q-1.609375 0 -2.4375 -0.96875q-0.8125 -0.984375 -0.8125 -2.78125l0 -8.734375l-2.578125 0l0 -1.859375l2.578125 0l0 -3.421875l2.40625 0zm8.707535 0l0 3.421875l2.625 0l0 1.859375l-2.625 0l0 8.734375q0 0.84375 0.34375 1.265625q0.359375 0.421875 1.203125 0.421875q0.40625 0 1.140625 -0.15625l0 1.953125q-0.953125 0.265625 -1.84375 0.265625q-1.609375 0 -2.4375 -0.96875q-0.8125 -0.984375 -0.8125 -2.78125l0 -8.734375l-2.578125 0l0 -1.859375l2.578125 0l0 -3.421875l2.40625 0zm8.051285 17.5l-2.40625 0l0 -20.0l2.40625 0l0 20.0zm9.703201 0.265625q-2.875 0 -4.671875 -1.875q-1.796875 -1.890625 -1.796875 -5.046875l0 -0.4375q0 -2.09375 0.796875 -3.734375q0.8125 -1.65625 2.25 -2.578125q1.4375 -0.9375 3.109375 -0.9375q2.75 0 4.265625 1.8125q1.53125 1.8125 1.53125 5.171875l0 1.0l-9.53125 0q0.046875 2.09375 1.203125 3.375q1.171875 1.28125 2.96875 1.28125q1.28125 0 2.15625 -0.515625q0.890625 -0.53125 1.546875 -1.390625l1.484375 1.15625q-1.78125 2.71875 -5.3125 2.71875zm-0.3125 -12.625q-1.453125 0 -2.4375 1.0625q-0.984375 1.046875 -1.21875 2.96875l7.046875 0l0 -0.1875q-0.109375 -1.828125 -1.0 -2.828125q-0.875 -1.015625 -2.390625 -1.015625zm27.080444 5.46875q0 3.21875 -1.46875 5.1875q-1.46875 1.96875 -3.984375 1.96875q-2.5625 0 -4.03125 -1.625l0 6.78125l-2.40625 0l0 -19.5l2.1875 0l0.125 1.5625q1.46875 -1.828125 4.078125 -1.828125q2.546875 0 4.015625 1.921875q1.484375 1.90625 1.484375 5.3125l0 0.21875zm-2.40625 -0.265625q0 -2.390625 -1.015625 -3.765625q-1.015625 -1.375 -2.78125 -1.375q-2.1875 0 -3.28125 1.9375l0 6.734375q1.078125 1.921875 3.296875 1.921875q1.734375 0 2.75 -1.375q1.03125 -1.375 1.03125 -4.078125zm14.158218 7.15625q-0.203125 -0.421875 -0.34375 -1.484375q-1.671875 1.75 -4.0 1.75q-2.078125 0 -3.421875 -1.171875q-1.328125 -1.1875 -1.328125 -3.0q0 -2.203125 1.671875 -3.40625q1.671875 -1.21875 4.703125 -1.21875l2.34375 0l0 -1.109375q0 -1.265625 -0.765625 -2.015625q-0.75 -0.75 -2.21875 -0.75q-1.28125 0 -2.15625 0.65625q-0.875 0.640625 -0.875 1.578125l-2.421875 0q0 -1.0625 0.75 -2.046875q0.75 -0.984375 2.03125 -1.546875q1.28125 -0.578125 2.8125 -0.578125q2.4375 0 3.8125 1.21875q1.390625 1.21875 1.4375 3.34375l0 6.484375q0 1.9375 0.5 3.09375l0 0.203125l-2.53125 0zm-4.0 -1.828125q1.140625 0 2.15625 -0.578125q1.015625 -0.59375 1.46875 -1.53125l0 -2.890625l-1.890625 0q-4.421875 0 -4.421875 2.578125q0 1.140625 0.75 1.78125q0.765625 0.640625 1.9375 0.640625zm13.077667 -15.671875l0 3.421875l2.625 0l0 1.859375l-2.625 0l0 8.734375q0 0.84375 0.34375 1.265625q0.359375 0.421875 1.203125 0.421875q0.40625 0 1.140625 -0.15625l0 1.953125q-0.953125 0.265625 -1.84375 0.265625q-1.609375 0 -2.4375 -0.96875q-0.8125 -0.984375 -0.8125 -2.78125l0 -8.734375l-2.578125 0l0 -1.859375l2.578125 0l0 -3.421875l2.40625 0zm8.051285 17.5l-2.40625 0l0 -14.078125l2.40625 0l0 14.078125zm-2.609375 -17.8125q0 -0.59375 0.359375 -1.0q0.359375 -0.40625 1.0625 -0.40625q0.703125 0 1.0625 0.40625q0.375 0.40625 0.375 1.0q0 0.578125 -0.375 0.96875q-0.359375 0.390625 -1.0625 0.390625q-0.703125 0 -1.0625 -0.390625q-0.359375 -0.390625 -0.359375 -0.96875zm12.312576 18.078125q-2.875 0 -4.671875 -1.875q-1.796875 -1.890625 -1.796875 -5.046875l0 -0.4375q0 -2.09375 0.796875 -3.734375q0.8125 -1.65625 2.25 -2.578125q1.4375 -0.9375 3.109375 -0.9375q2.75 0 4.265625 1.8125q1.53125 1.8125 1.53125 5.171875l0 1.0l-9.53125 0q0.046875 2.09375 1.203125 3.375q1.171875 1.28125 2.96875 1.28125q1.28125 0 2.15625 -0.515625q0.890625 -0.53125 1.546875 -1.390625l1.484375 1.15625q-1.78125 2.71875 -5.3125 2.71875zm-0.3125 -12.625q-1.453125 0 -2.4375 1.0625q-0.984375 1.046875 -1.21875 2.96875l7.046875 0l0 -0.1875q-0.109375 -1.828125 -1.0 -2.828125q-0.875 -1.015625 -2.390625 -1.015625zm10.856445 -1.71875l0.078125 1.765625q1.625 -2.03125 4.21875 -2.03125q4.46875 0 4.515625 5.03125l0 9.3125l-2.421875 0l0 -9.3125q0 -1.53125 -0.6875 -2.25q-0.6875 -0.734375 -2.125 -0.734375q-1.171875 0 -2.0625 0.625q-0.890625 0.625 -1.375 1.640625l0 10.03125l-2.40625 0l0 -14.078125l2.265625 0zm18.082794 12.375q1.296875 0 2.25 -0.78125q0.96875 -0.78125 1.078125 -1.953125l2.265625 0q-0.0625 1.203125 -0.828125 2.296875q-0.765625 1.09375 -2.046875 1.75q-1.28125 0.65625 -2.71875 0.65625q-2.875 0 -4.578125 -1.921875q-1.6875 -1.921875 -1.6875 -5.25l0 -0.40625q0 -2.0625 0.75 -3.65625q0.75 -1.609375 2.15625 -2.484375q1.421875 -0.890625 3.34375 -0.890625q2.375 0 3.9375 1.421875q1.578125 1.421875 1.671875 3.6875l-2.265625 0q-0.109375 -1.375 -1.046875 -2.25q-0.921875 -0.875 -2.296875 -0.875q-1.828125 0 -2.84375 1.328125q-1.0 1.3125 -1.0 3.8125l0 0.453125q0 2.4375 1.0 3.75q1.0 1.3125 2.859375 1.3125zm14.156006 1.96875q-2.875 0 -4.671875 -1.875q-1.796875 -1.890625 -1.796875 -5.046875l0 -0.4375q0 -2.09375 0.796875 -3.734375q0.8125 -1.65625 2.25 -2.578125q1.4375 -0.9375 3.109375 -0.9375q2.75 0 4.265625 1.8125q1.53125 1.8125 1.53125 5.171875l0 1.0l-9.53125 0q0.046875 2.09375 1.203125 3.375q1.171875 1.28125 2.96875 1.28125q1.28125 0 2.15625 -0.515625q0.890625 -0.53125 1.546875 -1.390625l1.484375 1.15625q-1.78125 2.71875 -5.3125 2.71875zm-0.3125 -12.625q-1.453125 0 -2.4375 1.0625q-0.984375 1.046875 -1.21875 2.96875l7.046875 0l0 -0.1875q-0.109375 -1.828125 -1.0 -2.828125q-0.875 -1.015625 -2.390625 -1.015625zm23.87732 12.359375q-0.203125 -0.421875 -0.34375 -1.484375q-1.671875 1.75 -4.0 1.75q-2.078125 0 -3.421875 -1.171875q-1.328125 -1.1875 -1.328125 -3.0q0 -2.203125 1.671875 -3.40625q1.671875 -1.21875 4.703125 -1.21875l2.34375 0l0 -1.109375q0 -1.265625 -0.765625 -2.015625q-0.75 -0.75 -2.21875 -0.75q-1.28125 0 -2.15625 0.65625q-0.875 0.640625 -0.875 1.578125l-2.421875 0q0 -1.0625 0.75 -2.046875q0.75 -0.984375 2.03125 -1.546875q1.28125 -0.578125 2.8125 -0.578125q2.4375 0 3.8125 1.21875q1.390625 1.21875 1.4375 3.34375l0 6.484375q0 1.9375 0.5 3.09375l0 0.203125l-2.53125 0zm-4.0 -1.828125q1.140625 0 2.15625 -0.578125q1.015625 -0.59375 1.46875 -1.53125l0 -2.890625l-1.890625 0q-4.421875 0 -4.421875 2.578125q0 1.140625 0.75 1.78125q0.765625 0.640625 1.9375 0.640625zm12.077667 -12.25l0.078125 1.765625q1.625 -2.03125 4.21875 -2.03125q4.46875 0 4.515625 5.03125l0 9.3125l-2.421875 0l0 -9.3125q0 -1.53125 -0.6875 -2.25q-0.6875 -0.734375 -2.125 -0.734375q-1.171875 0 -2.0625 0.625q-0.890625 0.625 -1.375 1.640625l0 10.03125l-2.40625 0l0 -14.078125l2.265625 0zm11.848419 6.921875q0 -3.25 1.53125 -5.21875q1.546875 -1.96875 4.03125 -1.96875q2.46875 0 3.921875 1.6875l0 -7.34375l2.40625 0l0 20.0l-2.21875 0l-0.109375 -1.515625q-1.453125 1.78125 -4.03125 1.78125q-2.4375 0 -3.984375 -2.0q-1.546875 -2.015625 -1.546875 -5.234375l0 -0.1875zm2.40625 0.265625q0 2.40625 0.984375 3.765625q1.0 1.34375 2.734375 1.34375q2.296875 0 3.359375 -2.0625l0 -6.46875q-1.09375 -1.984375 -3.328125 -1.984375q-1.765625 0 -2.765625 1.375q-0.984375 1.359375 -0.984375 4.03125zm25.460297 5.1875q1.296875 0 2.25 -0.78125q0.96875 -0.78125 1.078125 -1.953125l2.265625 0q-0.0625 1.203125 -0.828125 2.296875q-0.765625 1.09375 -2.046875 1.75q-1.28125 0.65625 -2.71875 0.65625q-2.875 0 -4.578125 -1.921875q-1.6875 -1.921875 -1.6875 -5.25l0 -0.40625q0 -2.0625 0.75 -3.65625q0.75 -1.609375 2.15625 -2.484375q1.421875 -0.890625 3.34375 -0.890625q2.375 0 3.9375 1.421875q1.578125 1.421875 1.671875 3.6875l-2.265625 0q-0.109375 -1.375 -1.046875 -2.25q-0.921875 -0.875 -2.296875 -0.875q-1.828125 0 -2.84375 1.328125q-1.0 1.3125 -1.0 3.8125l0 0.453125q0 2.4375 1.0 3.75q1.0 1.3125 2.859375 1.3125zm16.999756 0.3125q-1.40625 1.65625 -4.125 1.65625q-2.25 0 -3.4375 -1.3125q-1.171875 -1.3125 -1.1875 -3.875l0 -9.15625l2.40625 0l0 9.09375q0 3.203125 2.609375 3.203125q2.765625 0 3.671875 -2.0625l0 -10.234375l2.40625 0l0 14.078125l-2.296875 0l-0.046875 -1.390625zm12.804169 -10.53125q-0.546875 -0.09375 -1.1875 -0.09375q-2.359375 0 -3.203125 2.015625l0 10.0l-2.40625 0l0 -14.078125l2.34375 0l0.03125 1.625q1.1875 -1.890625 3.359375 -1.890625q0.703125 0 1.0625 0.1875l0 2.234375zm4.8323975 11.921875l-2.40625 0l0 -14.078125l2.40625 0l0 14.078125zm-2.609375 -17.8125q0 -0.59375 0.359375 -1.0q0.359375 -0.40625 1.0625 -0.40625q0.703125 0 1.0625 0.40625q0.375 0.40625 0.375 1.0q0 0.578125 -0.375 0.96875q-0.359375 0.390625 -1.0625 0.390625q-0.703125 0 -1.0625 -0.390625q-0.359375 -0.390625 -0.359375 -0.96875zm5.828186 10.640625q0 -2.0625 0.8125 -3.71875q0.8125 -1.65625 2.265625 -2.546875q1.453125 -0.90625 3.3125 -0.90625q2.875 0 4.640625 2.0q1.78125 1.984375 1.78125 5.296875l0 0.15625q0 2.0625 -0.78125 3.703125q-0.78125 1.625 -2.25 2.546875q-1.46875 0.90625 -3.375 0.90625q-2.859375 0 -4.640625 -1.984375q-1.765625 -2.0 -1.765625 -5.28125l0 -0.171875zm2.421875 0.28125q0 2.34375 1.078125 3.765625q1.09375 1.421875 2.90625 1.421875q1.84375 0 2.921875 -1.4375q1.078125 -1.4375 1.078125 -4.03125q0 -2.3125 -1.109375 -3.75q-1.09375 -1.4375 -2.90625 -1.4375q-1.78125 0 -2.875 1.421875q-1.09375 1.40625 -1.09375 4.046875zm21.608643 3.15625q0 -0.984375 -0.734375 -1.515625q-0.734375 -0.546875 -2.5625 -0.9375q-1.828125 -0.390625 -2.90625 -0.9375q-1.0625 -0.546875 -1.578125 -1.296875q-0.515625 -0.75 -0.515625 -1.796875q0 -1.734375 1.453125 -2.921875q1.46875 -1.203125 3.75 -1.203125q2.390625 0 3.875 1.234375q1.5 1.234375 1.5 3.171875l-2.421875 0q0 -1.0 -0.84375 -1.703125q-0.828125 -0.71875 -2.109375 -0.71875q-1.3125 0 -2.0625 0.578125q-0.734375 0.5625 -0.734375 1.484375q0 0.875 0.6875 1.328125q0.6875 0.4375 2.484375 0.84375q1.8125 0.390625 2.921875 0.953125q1.125 0.5625 1.671875 1.359375q0.546875 0.78125 0.546875 1.90625q0 1.890625 -1.515625 3.03125q-1.515625 1.140625 -3.921875 1.140625q-1.6875 0 -3.0 -0.59375q-1.296875 -0.609375 -2.03125 -1.671875q-0.734375 -1.078125 -0.734375 -2.328125l2.40625 0q0.0625 1.203125 0.96875 1.921875q0.90625 0.703125 2.390625 0.703125q1.375 0 2.1875 -0.546875q0.828125 -0.5625 0.828125 -1.484375zm8.166504 3.734375l-2.40625 0l0 -14.078125l2.40625 0l0 14.078125zm-2.609375 -17.8125q0 -0.59375 0.359375 -1.0q0.359375 -0.40625 1.0625 -0.40625q0.703125 0 1.0625 0.40625q0.375 0.40625 0.375 1.0q0 0.578125 -0.375 0.96875q-0.359375 0.390625 -1.0625 0.390625q-0.703125 0 -1.0625 -0.390625q-0.359375 -0.390625 -0.359375 -0.96875zm9.734436 0.3125l0 3.421875l2.625 0l0 1.859375l-2.625 0l0 8.734375q0 0.84375 0.34375 1.265625q0.359375 0.421875 1.203125 0.421875q0.40625 0 1.140625 -0.15625l0 1.953125q-0.953125 0.265625 -1.84375 0.265625q-1.609375 0 -2.4375 -0.96875q-0.8125 -0.984375 -0.8125 -2.78125l0 -8.734375l-2.578125 0l0 -1.859375l2.578125 0l0 -3.421875l2.40625 0zm10.05127 13.96875l3.265625 -10.546875l2.578125 0l-5.65625 16.25q-1.3125 3.515625 -4.171875 3.515625l-0.46875 -0.03125l-0.890625 -0.171875l0 -1.953125l0.65625 0.046875q1.21875 0 1.890625 -0.5q0.6875 -0.484375 1.140625 -1.796875l0.53125 -1.4375l-5.03125 -13.921875l2.640625 0l3.515625 10.546875z" fill-rule="nonzero"/></g></svg>