<svg version="1.1" viewBox="0.0 0.0 960.0 540.0" fill="none" stroke="none" stroke-linecap="square" stroke-miterlimit="10" xmlns:xlink="http://www.w3.org/1999/xlink" xmlns="http://www.w3.org/2000/svg"><clipPath id="g291c9753a70_0_0.0"><path d="m0 0l960.0 0l0 540.0l-960.0 0l0 -540.0z" clip-rule="nonzero"/></clipPath><g clip-path="url(#g291c9753a70_0_0.0)"><path fill="#fff2cc" d="m0 0l960.0 0l0 540.0l-960.0 0z" fill-rule="evenodd"/><path fill="#31394d" d="m0 0l960.00006 0l0 134.07874l-960.00006 0z" fill-rule="evenodd"/><path fill="#000000" fill-opacity="0.0" d="m32.727036 52.59055l894.55115 0l0 65.480316l-894.55115 0z" fill-rule="evenodd"/><path fill="#ffffff" d="m49.289536 97.43055l-4.59375 0l0 -26.53125l4.59375 0l0 26.53125zm9.347488 -19.71875l0.125 2.28125q2.1875 -2.640625 5.75 -2.640625q6.15625 0 6.265625 7.046875l0 13.03125l-4.421875 0l0 -12.78125q0 -1.875 -0.8125 -2.765625q-0.8125 -0.90625 -2.65625 -0.90625q-2.671875 0 -3.984375 2.421875l0 14.03125l-4.4375 0l0 -19.71875l4.171875 0zm22.197632 -4.796875l0 4.796875l3.484375 0l0 3.28125l-3.484375 0l0 11.0q0 1.140625 0.453125 1.640625q0.453125 0.5 1.59375 0.5q0.765625 0 1.546875 -0.1875l0 3.4375q-1.515625 0.40625 -2.90625 0.40625q-5.109375 0 -5.109375 -5.625l0 -11.171875l-3.25 0l0 -3.28125l3.25 0l0 -4.796875l4.421875 0zm17.193588 8.84375q-0.875 -0.15625 -1.796875 -0.15625q-3.046875 0 -4.109375 2.34375l0 13.484375l-4.421875 0l0 -19.71875l4.21875 0l0.109375 2.203125q1.609375 -2.5625 4.453125 -2.5625q0.953125 0 1.5625 0.25l-0.015625 4.15625zm1.310669 5.625q0 -2.890625 1.140625 -5.21875q1.15625 -2.328125 3.234375 -3.5625q2.078125 -1.25 4.78125 -1.25q3.984375 0 6.46875 2.5625q2.5 2.5625 2.6875 6.8125l0.03125 1.046875q0 2.90625 -1.125 5.203125q-1.125 2.296875 -3.21875 3.5625q-2.078125 1.25 -4.8125 1.25q-4.171875 0 -6.6875 -2.765625q-2.5 -2.78125 -2.5 -7.421875l0 -0.21875zm4.4375 0.390625q0 3.046875 1.25 4.765625q1.265625 1.71875 3.5 1.71875q2.25 0 3.484375 -1.75q1.25 -1.75 1.25 -5.125q0 -2.984375 -1.28125 -4.734375q-1.28125 -1.75 -3.484375 -1.75q-2.171875 0 -3.453125 1.71875q-1.265625 1.71875 -1.265625 5.15625zm16.814743 -0.34375q0 -4.5625 2.109375 -7.3125q2.125 -2.765625 5.671875 -2.765625q3.140625 0 5.078125 2.171875l0 -10.09375l4.421875 0l0 28.0l-4.015625 0l-0.21875 -2.046875q-1.984375 2.40625 -5.296875 2.40625q-3.46875 0 -5.609375 -2.78125q-2.140625 -2.796875 -2.140625 -7.578125zm4.4375 0.375q0 3.015625 1.15625 4.703125q1.15625 1.671875 3.28125 1.671875q2.71875 0 3.984375 -2.421875l0 -8.421875q-1.234375 -2.359375 -3.9375 -2.359375q-2.15625 0 -3.328125 1.703125q-1.15625 1.703125 -1.15625 5.125zm29.413727 7.6875q-1.953125 2.296875 -5.546875 2.296875q-3.203125 0 -4.859375 -1.875q-1.640625 -1.875 -1.640625 -5.421875l0 -12.78125l4.421875 0l0 12.71875q0 3.75 3.125 3.75q3.21875 0 4.359375 -2.3125l0 -14.15625l4.421875 0l0 19.71875l-4.171875 0l-0.109375 -1.9375zm16.898148 -1.234375q1.65625 0 2.75 -0.96875q1.09375 -0.96875 1.171875 -2.390625l4.171875 0q-0.078125 1.84375 -1.15625 3.4375q-1.078125 1.59375 -2.921875 2.53125q-1.828125 0.921875 -3.96875 0.921875q-4.140625 0 -6.5625 -2.671875q-2.421875 -2.6875 -2.421875 -7.40625l0 -0.453125q0 -4.5 2.40625 -7.203125q2.40625 -2.703125 6.5625 -2.703125q3.515625 0 5.734375 2.046875q2.21875 2.046875 2.328125 5.375l-4.171875 0q-0.078125 -1.6875 -1.171875 -2.78125q-1.078125 -1.09375 -2.75 -1.09375q-2.15625 0 -3.328125 1.5625q-1.15625 1.546875 -1.171875 4.71875l0 0.71875q0 3.203125 1.15625 4.78125q1.15625 1.578125 3.34375 1.578125zm16.97644 -21.34375l0 4.796875l3.484375 0l0 3.28125l-3.484375 0l0 11.0q0 1.140625 0.453125 1.640625q0.453125 0.5 1.59375 0.5q0.765625 0 1.546875 -0.1875l0 3.4375q-1.515625 0.40625 -2.90625 0.40625q-5.109375 0 -5.109375 -5.625l0 -11.171875l-3.25 0l0 -3.28125l3.25 0l0 -4.796875l4.421875 0zm11.584213 24.515625l-4.4375 0l0 -19.71875l4.4375 0l0 19.71875zm-4.703125 -24.84375q0 -1.015625 0.640625 -1.6875q0.65625 -0.6875 1.859375 -0.6875q1.203125 0 1.859375 0.6875q0.65625 0.671875 0.65625 1.6875q0 1.0 -0.65625 1.671875q-0.65625 0.65625 -1.859375 0.65625q-1.203125 0 -1.859375 -0.65625q-0.640625 -0.671875 -0.640625 -1.671875zm8.688782 14.796875q0 -2.890625 1.140625 -5.21875q1.15625 -2.328125 3.234375 -3.5625q2.078125 -1.25 4.78125 -1.25q3.984375 0 6.46875 2.5625q2.5 2.5625 2.6875 6.8125l0.03125 1.046875q0 2.90625 -1.125 5.203125q-1.125 2.296875 -3.21875 3.5625q-2.078125 1.25 -4.8125 1.25q-4.171875 0 -6.6875 -2.765625q-2.5 -2.78125 -2.5 -7.421875l0 -0.21875zm4.4375 0.390625q0 3.046875 1.25 4.765625q1.265625 1.71875 3.5 1.71875q2.25 0 3.484375 -1.75q1.25 -1.75 1.25 -5.125q0 -2.984375 -1.28125 -4.734375q-1.28125 -1.75 -3.484375 -1.75q-2.171875 0 -3.453125 1.71875q-1.265625 1.71875 -1.265625 5.15625zm21.752243 -10.0625l0.125 2.28125q2.1875 -2.640625 5.75 -2.640625q6.15625 0 6.265625 7.046875l0 13.03125l-4.421875 0l0 -12.78125q0 -1.875 -0.8125 -2.765625q-0.8125 -0.90625 -2.65625 -0.90625q-2.671875 0 -3.984375 2.421875l0 14.03125l-4.4375 0l0 -19.71875l4.171875 0zm27.713242 14.359375q0 -1.1875 -0.984375 -1.796875q-0.96873474 -0.625 -3.2343597 -1.09375q-2.25 -0.484375 -3.765625 -1.203125q-3.328125 -1.609375 -3.328125 -4.65625q0 -2.546875 2.15625 -4.25q2.15625 -1.71875 5.46875 -1.71875q3.5312347 0 5.7031097 1.75q2.1875 1.734375 2.1875 4.53125l-4.421875 0q0 -1.28125 -0.953125 -2.125q-0.95310974 -0.84375 -2.5156097 -0.84375q-1.453125 0 -2.375 0.671875q-0.921875 0.671875 -0.921875 1.796875q0 1.03125 0.859375 1.59375q0.859375 0.5625 3.453125 1.140625q2.6093597 0.578125 4.0937347 1.375q1.484375 0.78125 2.203125 1.890625q0.734375 1.109375 0.734375 2.703125q0 2.65625 -2.21875 4.3125q-2.203125 1.640625 -5.7656097 1.640625q-2.4375 0 -4.328125 -0.875q-1.890625 -0.875 -2.953125 -2.40625q-1.0625 -1.53125 -1.0625 -3.296875l4.3125 0q0.09375 1.578125 1.1875 2.421875q1.09375 0.84375 2.890625 0.84375q1.75 0 2.6562347 -0.65625q0.921875 -0.671875 0.921875 -1.75z" fill-rule="nonzero"/><path fill="#000000" fill-opacity="0.0" d="m32.727036 243.43307l612.9134 0l0 181.5748l-612.9134 0z" fill-rule="evenodd"/><path fill="#31394d" d="m60.099213 263.6318q1.0 0 1.96875 0.53125q0.96875 0.515625 1.5 1.484375q0.53125 0.96875 0.53125 2.0q0 1.671875 -1.171875 2.84375q-1.171875 1.171875 -2.828125 1.171875q-1.671875 0 -2.84375 -1.171875q-1.171875 -1.171875 -1.171875 -2.84375q0 -1.046875 0.53125 -2.0q0.546875 -0.96875 1.5 -1.484375q0.96875 -0.53125 1.984375 -0.53125z" fill-rule="nonzero"/><path fill="#31394d" d="m103.133286 272.91306l-2.0 0l-7.640625 -11.6875l0 11.6875l-2.0 0l0 -15.15625l2.0 0l7.65625 11.734375l0 -11.734375l1.984375 0l0 15.15625zm10.220245 0q-0.171875 -0.328125 -0.28125 -1.1875q-1.34375 1.390625 -3.203125 1.390625q-1.671875 0 -2.734375 -0.9375q-1.0625 -0.9375 -1.0625 -2.390625q0 -1.765625 1.328125 -2.734375q1.34375 -0.96875 3.765625 -0.96875l1.875 0l0 -0.890625q0 -1.015625 -0.609375 -1.609375q-0.59375 -0.59375 -1.765625 -0.59375q-1.03125 0 -1.734375 0.515625q-0.703125 0.515625 -0.703125 1.265625l-1.9375 0q0 -0.84375 0.59375 -1.625q0.609375 -0.796875 1.625 -1.25q1.03125 -0.453125 2.265625 -0.453125q1.953125 0 3.046875 0.96875q1.109375 0.96875 1.15625 2.671875l0 5.1875q0 1.5625 0.390625 2.46875l0 0.171875l-2.015625 0zm-3.203125 -1.46875q0.90625 0 1.71875 -0.46875q0.8125 -0.46875 1.171875 -1.21875l0 -2.3125l-1.5 0q-3.546875 0 -3.546875 2.078125q0 0.90625 0.59375 1.421875q0.609375 0.5 1.5625 0.5zm9.648209 -9.796875l0.0625 1.25q1.234375 -1.453125 3.34375 -1.453125q2.359375 0 3.21875 1.796875q0.5625 -0.8125 1.453125 -1.296875q0.90625 -0.5 2.125 -0.5q3.71875 0 3.78125 3.921875l0 7.546875l-1.9375 0l0 -7.4375q0 -1.203125 -0.546875 -1.796875q-0.546875 -0.609375 -1.859375 -0.609375q-1.0625 0 -1.78125 0.640625q-0.703125 0.640625 -0.8125 1.71875l0 7.484375l-1.9375 0l0 -7.390625q0 -2.453125 -2.40625 -2.453125q-1.890625 0 -2.59375 1.609375l0 8.234375l-1.921875 0l0 -11.265625l1.8125 0zm21.56836 11.46875q-2.296875 0 -3.734375 -1.5q-1.4375 -1.5 -1.4375 -4.03125l0 -0.34375q0 -1.6875 0.640625 -3.0q0.640625 -1.3125 1.78125 -2.046875q1.15625 -0.75 2.5 -0.75q2.203125 0 3.421875 1.453125q1.21875 1.4375 1.21875 4.125l0 0.8125l-7.640625 0q0.046875 1.65625 0.96875 2.6875q0.9375 1.03125 2.375 1.03125q1.03125 0 1.734375 -0.421875q0.703125 -0.421875 1.234375 -1.109375l1.1875 0.921875q-1.421875 2.171875 -4.25 2.171875zm-0.25 -10.09375q-1.15625 0 -1.953125 0.84375q-0.796875 0.84375 -0.984375 2.375l5.65625 0l0 -0.140625q-0.09375 -1.46875 -0.796875 -2.265625q-0.703125 -0.8125 -1.921875 -0.8125z" fill-rule="nonzero"/><path fill="#31394d" d="m59.297882 291.30368q1.140625 0 2.234375 0.59375q1.109375 0.59375 1.71875 1.703125q0.625 1.109375 0.625 2.296875q0 1.90625 -1.34375 3.25q-1.34375 1.34375 -3.234375 1.34375q-1.90625 0 -3.25 -1.34375q-1.34375 -1.34375 -1.34375 -3.25q0 -1.203125 0.609375 -2.296875q0.609375 -1.109375 1.71875 -1.703125q1.109375 -0.59375 2.265625 -0.59375z" fill-rule="nonzero"/><path fill="#31394d" d="m93.49266 295.97556l0 5.9375l-2.0 0l0 -15.15625l5.59375 0q2.484375 0 3.890625 1.265625q1.40625 1.265625 1.40625 3.359375q0 2.203125 -1.375 3.40625q-1.375 1.1875 -3.953125 1.1875l-3.5625 0zm0 -1.640625l3.59375 0q1.59375 0 2.453125 -0.75q0.859375 -0.75 0.859375 -2.1875q0 -1.34375 -0.859375 -2.15625q-0.859375 -0.8125 -2.34375 -0.84375l-3.703125 0l0 5.9375zm16.595673 -1.96875q-0.4375 -0.0625 -0.953125 -0.0625q-1.890625 0 -2.5625 1.609375l0 8.0l-1.9375 0l0 -11.265625l1.875 0l0.03125 1.296875q0.953125 -1.5 2.6875 -1.5q0.5625 0 0.859375 0.140625l0 1.78125zm1.055542 3.8125q0 -1.65625 0.640625 -2.984375q0.65625 -1.328125 1.8125 -2.03125q1.171875 -0.71875 2.65625 -0.71875q2.296875 0 3.71875 1.59375q1.421875 1.578125 1.421875 4.234375l0 0.125q0 1.65625 -0.625 2.96875q-0.625 1.296875 -1.796875 2.03125q-1.171875 0.71875 -2.703125 0.71875q-2.28125 0 -3.703125 -1.59375q-1.421875 -1.59375 -1.421875 -4.21875l0 -0.125zm1.9375 0.21875q0 1.875 0.859375 3.015625q0.875 1.140625 2.328125 1.140625q1.46875 0 2.328125 -1.15625q0.875 -1.15625 0.875 -3.21875q0 -1.859375 -0.890625 -3.0q-0.875 -1.15625 -2.328125 -1.15625q-1.421875 0 -2.296875 1.140625q-0.875 1.125 -0.875 3.234375zm12.554321 -5.75l0.0625 1.40625q1.296875 -1.609375 3.375 -1.609375q3.578125 0 3.609375 4.015625l0 7.453125l-1.9375 0l0 -7.453125q0 -1.21875 -0.546875 -1.796875q-0.546875 -0.59375 -1.703125 -0.59375q-0.9375 0 -1.65625 0.5q-0.703125 0.5 -1.09375 1.3125l0 8.03125l-1.9375 0l0 -11.265625l1.828125 0zm9.439835 5.53125q0 -1.65625 0.640625 -2.984375q0.65625 -1.328125 1.8125 -2.03125q1.171875 -0.71875 2.65625 -0.71875q2.296875 0 3.71875 1.59375q1.421875 1.578125 1.421875 4.234375l0 0.125q0 1.65625 -0.625 2.96875q-0.625 1.296875 -1.796875 2.03125q-1.171875 0.71875 -2.703125 0.71875q-2.28125 0 -3.703125 -1.59375q-1.421875 -1.59375 -1.421875 -4.21875l0 -0.125zm1.9375 0.21875q0 1.875 0.859375 3.015625q0.875 1.140625 2.328125 1.140625q1.46875 0 2.328125 -1.15625q0.875 -1.15625 0.875 -3.21875q0 -1.859375 -0.890625 -3.0q-0.875 -1.15625 -2.328125 -1.15625q-1.421875 0 -2.296875 1.140625q-0.875 1.125 -0.875 3.234375zm17.694946 4.40625q-1.125 1.3125 -3.3125 1.3125q-1.796875 0 -2.75 -1.046875q-0.9375 -1.046875 -0.9375 -3.09375l0 -7.328125l1.921875 0l0 7.28125q0 2.5625 2.078125 2.5625q2.21875 0 2.9375 -1.65625l0 -8.1875l1.9375 0l0 11.265625l-1.84375 0l-0.03125 -1.109375zm6.616928 -10.15625l0.0625 1.40625q1.296875 -1.609375 3.375 -1.609375q3.578125 0 3.609375 4.015625l0 7.453125l-1.9375 0l0 -7.453125q0 -1.21875 -0.546875 -1.796875q-0.546875 -0.59375 -1.703125 -0.59375q-0.9375 0 -1.65625 0.5q-0.703125 0.5 -1.09375 1.3125l0 8.03125l-1.9375 0l0 -11.265625l1.828125 0zm16.502335 8.28125q0 -0.78125 -0.59375 -1.21875q-0.578125 -0.4375 -2.046875 -0.75q-1.453125 -0.3125 -2.3125 -0.75q-0.859375 -0.4375 -1.28125 -1.03125q-0.40625 -0.609375 -0.40625 -1.4375q0 -1.390625 1.171875 -2.34375q1.171875 -0.953125 3.0 -0.953125q1.90625 0 3.09375 0.984375q1.203125 0.984375 1.203125 2.53125l-1.9375 0q0 -0.796875 -0.671875 -1.359375q-0.671875 -0.578125 -1.6875 -0.578125q-1.0625 0 -1.65625 0.453125q-0.59375 0.453125 -0.59375 1.203125q0 0.6875 0.546875 1.046875q0.5625 0.359375 2.0 0.6875q1.453125 0.3125 2.34375 0.765625q0.890625 0.4375 1.328125 1.078125q0.4375 0.625 0.4375 1.53125q0 1.515625 -1.21875 2.421875q-1.203125 0.90625 -3.125 0.90625q-1.359375 0 -2.40625 -0.46875q-1.03125 -0.484375 -1.625 -1.34375q-0.59375 -0.859375 -0.59375 -1.859375l1.9375 0q0.046875 0.96875 0.765625 1.546875q0.734375 0.5625 1.921875 0.5625q1.09375 0 1.75 -0.4375q0.65625 -0.453125 0.65625 -1.1875z" fill-rule="nonzero"/><path fill="#31394d" d="m59.297882 320.30368q1.140625 0 2.234375 0.59375q1.109375 0.59375 1.71875 1.703125q0.625 1.109375 0.625 2.296875q0 1.90625 -1.34375 3.25q-1.34375 1.34375 -3.234375 1.34375q-1.90625 0 -3.25 -1.34375q-1.34375 -1.34375 -1.34375 -3.25q0 -1.203125 0.609375 -2.296875q0.609375 -1.109375 1.71875 -1.703125q1.109375 -0.59375 2.265625 -0.59375z" fill-rule="nonzero"/><path fill="#31394d" d="m93.49266 324.97556l0 5.9375l-2.0 0l0 -15.15625l5.59375 0q2.484375 0 3.890625 1.265625q1.40625 1.265625 1.40625 3.359375q0 2.203125 -1.375 3.40625q-1.375 1.1875 -3.953125 1.1875l-3.5625 0zm0 -1.640625l3.59375 0q1.59375 0 2.453125 -0.75q0.859375 -0.75 0.859375 -2.1875q0 -1.34375 -0.859375 -2.15625q-0.859375 -0.8125 -2.34375 -0.84375l-3.703125 0l0 5.9375zm16.595673 -1.96875q-0.4375 -0.0625 -0.953125 -0.0625q-1.890625 0 -2.5625 1.609375l0 8.0l-1.9375 0l0 -11.265625l1.875 0l0.03125 1.296875q0.953125 -1.5 2.6875 -1.5q0.5625 0 0.859375 0.140625l0 1.78125zm1.055542 3.8125q0 -1.65625 0.640625 -2.984375q0.65625 -1.328125 1.8125 -2.03125q1.171875 -0.71875 2.65625 -0.71875q2.296875 0 3.71875 1.59375q1.421875 1.578125 1.421875 4.234375l0 0.125q0 1.65625 -0.625 2.96875q-0.625 1.296875 -1.796875 2.03125q-1.171875 0.71875 -2.703125 0.71875q-2.28125 0 -3.703125 -1.59375q-1.421875 -1.59375 -1.421875 -4.21875l0 -0.125zm1.9375 0.21875q0 1.875 0.859375 3.015625q0.875 1.140625 2.328125 1.140625q1.46875 0 2.328125 -1.15625q0.875 -1.15625 0.875 -3.21875q0 -1.859375 -0.890625 -3.0q-0.875 -1.15625 -2.328125 -1.15625q-1.421875 0 -2.296875 1.140625q-0.875 1.125 -0.875 3.234375zm10.273071 -0.21875q0 -2.625 1.21875 -4.171875q1.21875 -1.5625 3.234375 -1.5625q2.0625 0 3.21875 1.453125l0.09375 -1.25l1.75 0l0 11.0q0 2.1875 -1.296875 3.4375q-1.296875 1.265625 -3.484375 1.265625q-1.21875 0 -2.390625 -0.53125q-1.15625 -0.515625 -1.765625 -1.421875l1.0 -1.15625q1.234375 1.53125 3.03125 1.53125q1.40625 0 2.1875 -0.796875q0.78125 -0.78125 0.78125 -2.21875l0 -0.96875q-1.15625 1.328125 -3.15625 1.328125q-1.96875 0 -3.203125 -1.59375q-1.21875 -1.59375 -1.21875 -4.34375zm1.9375 0.21875q0 1.90625 0.78125 3.0q0.78125 1.09375 2.1875 1.09375q1.828125 0 2.671875 -1.65625l0 -5.15625q-0.875 -1.609375 -2.65625 -1.609375q-1.40625 0 -2.203125 1.09375q-0.78125 1.09375 -0.78125 3.234375zm15.934586 -4.03125q-0.4375 -0.0625 -0.953125 -0.0625q-1.890625 0 -2.5625 1.609375l0 8.0l-1.9375 0l0 -11.265625l1.875 0l0.03125 1.296875q0.953125 -1.5 2.6875 -1.5q0.5625 0 0.859375 0.140625l0 1.78125zm8.3159485 9.546875q-0.171875 -0.328125 -0.28125 -1.1875q-1.34375 1.390625 -3.203125 1.390625q-1.671875 0 -2.734375 -0.9375q-1.0625 -0.9375 -1.0625 -2.390625q0 -1.765625 1.328125 -2.734375q1.34375 -0.96875 3.765625 -0.96875l1.875 0l0 -0.890625q0 -1.015625 -0.609375 -1.609375q-0.59375 -0.59375 -1.765625 -0.59375q-1.03125 0 -1.734375 0.515625q-0.703125 0.515625 -0.703125 1.265625l-1.9375 0q0 -0.84375 0.59375 -1.625q0.609375 -0.796875 1.625 -1.25q1.03125 -0.453125 2.265625 -0.453125q1.953125 0 3.046875 0.96875q1.109375 0.96875 1.15625 2.671875l0 5.1875q0 1.5625 0.390625 2.46875l0 0.171875l-2.015625 0zm-3.203125 -1.46875q0.90625 0 1.71875 -0.46875q0.8125 -0.46875 1.171875 -1.21875l0 -2.3125l-1.5 0q-3.546875 0 -3.546875 2.078125q0 0.90625 0.59375 1.421875q0.609375 0.5 1.5625 0.5zm9.648209 -9.796875l0.0625 1.25q1.234375 -1.453125 3.34375 -1.453125q2.359375 0 3.21875 1.796875q0.5625 -0.8125 1.453125 -1.296875q0.90625 -0.5 2.125 -0.5q3.71875 0 3.78125 3.921875l0 7.546875l-1.9375 0l0 -7.4375q0 -1.203125 -0.546875 -1.796875q-0.546875 -0.609375 -1.859375 -0.609375q-1.0625 0 -1.78125 0.640625q-0.703125 0.640625 -0.8125 1.71875l0 7.484375l-1.9375 0l0 -7.390625q0 -2.453125 -2.40625 -2.453125q-1.890625 0 -2.59375 1.609375l0 8.234375l-1.921875 0l0 -11.265625l1.8125 0z" fill-rule="nonzero"/><path fill="#31394d" d="m59.297882 349.30368q1.140625 0 2.234375 0.59375q1.109375 0.59375 1.71875 1.703125q0.625 1.109375 0.625 2.296875q0 1.90625 -1.34375 3.25q-1.34375 1.34375 -3.234375 1.34375q-1.90625 0 -3.25 -1.34375q-1.34375 -1.34375 -1.34375 -3.25q0 -1.203125 0.609375 -2.296875q0.609375 -1.109375 1.71875 -1.703125q1.109375 -0.59375 2.265625 -0.59375z" fill-rule="nonzero"/><path fill="#31394d" d="m97.320786 359.91306l-1.9375 0l0 -12.84375l-3.890625 1.4375l0 -1.75l5.53125 -2.078125l0.296875 0l0 15.234375zm13.740585 -14.0l0 2.734375l2.09375 0l0 1.484375l-2.09375 0l0 6.984375q0 0.6875 0.28125 1.03125q0.28125 0.328125 0.953125 0.328125q0.328125 0 0.921875 -0.125l0 1.5625q-0.765625 0.203125 -1.484375 0.203125q-1.296875 0 -1.953125 -0.78125q-0.65625 -0.78125 -0.65625 -2.21875l0 -6.984375l-2.046875 0l0 -1.484375l2.046875 0l0 -2.734375l1.9375 0zm6.2795563 4.09375q1.28125 -1.5625 3.328125 -1.5625q3.578125 0 3.609375 4.015625l0 7.453125l-1.9375 0l0 -7.453125q0 -1.21875 -0.546875 -1.796875q-0.546875 -0.59375 -1.703125 -0.59375q-0.9375 0 -1.65625 0.5q-0.703125 0.5 -1.09375 1.3125l0 8.03125l-1.9375 0l0 -16.0l1.9375 0l0 6.09375zm11.903381 9.90625l-1.921875 0l0 -11.265625l1.921875 0l0 11.265625zm-2.078125 -14.25q0 -0.46875 0.28125 -0.796875q0.296875 -0.328125 0.859375 -0.328125q0.5625 0 0.84375 0.328125q0.296875 0.328125 0.296875 0.796875q0 0.46875 -0.296875 0.78125q-0.28125 0.3125 -0.84375 0.3125q-0.5625 0 -0.859375 -0.3125q-0.28125 -0.3125 -0.28125 -0.78125zm6.988327 2.984375l0.0625 1.40625q1.296875 -1.609375 3.375 -1.609375q3.578125 0 3.609375 4.015625l0 7.453125l-1.9375 0l0 -7.453125q0 -1.21875 -0.546875 -1.796875q-0.546875 -0.59375 -1.703125 -0.59375q-0.9375 0 -1.65625 0.5q-0.703125 0.5 -1.09375 1.3125l0 8.03125l-1.9375 0l0 -11.265625l1.828125 0zm9.48671 5.53125q0 -2.625 1.21875 -4.171875q1.21875 -1.5625 3.234375 -1.5625q2.0625 0 3.21875 1.453125l0.09375 -1.25l1.75 0l0 11.0q0 2.1875 -1.296875 3.4375q-1.296875 1.265625 -3.484375 1.265625q-1.21875 0 -2.390625 -0.53125q-1.15625 -0.515625 -1.765625 -1.421875l1.0 -1.15625q1.234375 1.53125 3.03125 1.53125q1.40625 0 2.1875 -0.796875q0.78125 -0.78125 0.78125 -2.21875l0 -0.96875q-1.15625 1.328125 -3.15625 1.328125q-1.96875 0 -3.203125 -1.59375q-1.21875 -1.59375 -1.21875 -4.34375zm1.9375 0.21875q0 1.90625 0.78125 3.0q0.78125 1.09375 2.1875 1.09375q1.828125 0 2.671875 -1.65625l0 -5.15625q-0.875 -1.609375 -2.65625 -1.609375q-1.40625 0 -2.203125 1.09375q-0.78125 1.09375 -0.78125 3.234375zm19.448929 2.6875l2.625 -8.4375l2.0625 0l-4.53125 13.0q-1.046875 2.8125 -3.34375 2.8125l-0.359375 -0.03125l-0.71875 -0.125l0 -1.5625l0.515625 0.03125q0.984375 0 1.53125 -0.390625q0.546875 -0.390625 0.90625 -1.453125l0.421875 -1.140625l-4.015625 -11.140625l2.09375 0l2.8125 8.4375zm5.7475433 -2.90625q0 -1.65625 0.640625 -2.984375q0.65625 -1.328125 1.8125 -2.03125q1.171875 -0.71875 2.65625 -0.71875q2.296875 0 3.71875 1.59375q1.421875 1.578125 1.421875 4.234375l0 0.125q0 1.65625 -0.625 2.96875q-0.625 1.296875 -1.796875 2.03125q-1.171875 0.71875 -2.703125 0.71875q-2.28125 0 -3.703125 -1.59375q-1.421875 -1.59375 -1.421875 -4.21875l0 -0.125zm1.9375 0.21875q0 1.875 0.859375 3.015625q0.875 1.140625 2.328125 1.140625q1.46875 0 2.328125 -1.15625q0.875 -1.15625 0.875 -3.21875q0 -1.859375 -0.890625 -3.0q-0.875 -1.15625 -2.328125 -1.15625q-1.421875 0 -2.296875 1.140625q-0.875 1.125 -0.875 3.234375zm17.694946 4.40625q-1.125 1.3125 -3.3125 1.3125q-1.796875 0 -2.75 -1.046875q-0.9375 -1.046875 -0.9375 -3.09375l0 -7.328125l1.921875 0l0 7.28125q0 2.5625 2.078125 2.5625q2.21875 0 2.9375 -1.65625l0 -8.1875l1.9375 0l0 11.265625l-1.84375 0l-0.03125 -1.109375zm9.600021 -4.625q0 -2.59375 1.234375 -4.15625q1.234375 -1.578125 3.21875 -1.578125q1.984375 0 3.140625 1.34375l0 -5.875l1.921875 0l0 16.0l-1.765625 0l-0.09375 -1.203125q-1.15625 1.40625 -3.21875 1.40625q-1.96875 0 -3.203125 -1.59375q-1.234375 -1.609375 -1.234375 -4.1875l0 -0.15625zm1.9375 0.21875q0 1.921875 0.78125 3.015625q0.796875 1.078125 2.1875 1.078125q1.84375 0 2.6875 -1.65625l0 -5.171875q-0.875 -1.59375 -2.65625 -1.59375q-1.421875 0 -2.21875 1.09375q-0.78125 1.09375 -0.78125 3.234375zm10.05957 -0.21875q0 -1.65625 0.640625 -2.984375q0.65625 -1.328125 1.8125 -2.03125q1.171875 -0.71875 2.65625 -0.71875q2.296875 0 3.71875 1.59375q1.421875 1.578125 1.421875 4.234375l0 0.125q0 1.65625 -0.625 2.96875q-0.625 1.296875 -1.796875 2.03125q-1.171875 0.71875 -2.703125 0.71875q-2.28125 0 -3.703125 -1.59375q-1.421875 -1.59375 -1.421875 -4.21875l0 -0.125zm1.9375 0.21875q0 1.875 0.859375 3.015625q0.875 1.140625 2.328125 1.140625q1.46875 0 2.328125 -1.15625q0.875 -1.15625 0.875 -3.21875q0 -1.859375 -0.890625 -3.0q-0.875 -1.15625 -2.328125 -1.15625q-1.421875 0 -2.296875 1.140625q-0.875 1.125 -0.875 3.234375zm15.506165 -0.21875q0 -1.65625 0.640625 -2.984375q0.65625 -1.328125 1.8125 -2.03125q1.171875 -0.71875 2.65625 -0.71875q2.296875 0 3.71875 1.59375q1.421875 1.578125 1.421875 4.234375l0 0.125q0 1.65625 -0.625 2.96875q-0.625 1.296875 -1.796875 2.03125q-1.171875 0.71875 -2.703125 0.71875q-2.28125 0 -3.703125 -1.59375q-1.421875 -1.59375 -1.421875 -4.21875l0 -0.125zm1.9375 0.21875q0 1.875 0.859375 3.015625q0.875 1.140625 2.328125 1.140625q1.46875 0 2.328125 -1.15625q0.875 -1.15625 0.875 -3.21875q0 -1.859375 -0.890625 -3.0q-0.875 -1.15625 -2.328125 -1.15625q-1.421875 0 -2.296875 1.140625q-0.875 1.125 -0.875 3.234375zm16.179321 -4.03125q-0.4375 -0.0625 -0.953125 -0.0625q-1.890625 0 -2.5625 1.609375l0 8.0l-1.9375 0l0 -11.265625l1.875 0l0.03125 1.296875q0.953125 -1.5 2.6875 -1.5q0.5625 0 0.859375 0.140625l0 1.78125zm17.028198 6.890625l2.15625 -8.609375l1.9375 0l-3.28125 11.265625l-1.5625 0l-2.734375 -8.546875l-2.671875 8.546875l-1.5625 0l-3.2656097 -11.265625l1.90625 0l2.2187347 8.4375l2.625 -8.4375l1.5625 0l2.671875 8.609375zm5.5429688 -3.078125q0 -1.65625 0.640625 -2.984375q0.65625 -1.328125 1.8125 -2.03125q1.171875 -0.71875 2.65625 -0.71875q2.296875 0 3.71875 1.59375q1.421875 1.578125 1.421875 4.234375l0 0.125q0 1.65625 -0.625 2.96875q-0.625 1.296875 -1.796875 2.03125q-1.171875 0.71875 -2.703125 0.71875q-2.28125 0 -3.703125 -1.59375q-1.421875 -1.59375 -1.421875 -4.21875l0 -0.125zm1.9375 0.21875q0 1.875 0.859375 3.015625q0.875 1.140625 2.328125 1.140625q1.46875 0 2.328125 -1.15625q0.875 -1.15625 0.875 -3.21875q0 -1.859375 -0.890625 -3.0q-0.875 -1.15625 -2.328125 -1.15625q-1.421875 0 -2.296875 1.140625q-0.875 1.125 -0.875 3.234375zm17.694946 4.40625q-1.125 1.3125 -3.3125 1.3125q-1.796875 0 -2.75 -1.046875q-0.9375 -1.046875 -0.9375 -3.09375l0 -7.328125l1.921875 0l0 7.28125q0 2.5625 2.078125 2.5625q2.21875 0 2.9375 -1.65625l0 -8.1875l1.9375 0l0 11.265625l-1.84375 0l-0.03125 -1.109375zm6.8825684 1.109375l-1.921875 0l0 -16.0l1.921875 0l0 16.0zm2.6133118 -5.734375q0 -2.59375 1.234375 -4.15625q1.234375 -1.578125 3.21875 -1.578125q1.984375 0 3.140625 1.34375l0 -5.875l1.921875 0l0 16.0l-1.765625 0l-0.09375 -1.203125q-1.15625 1.40625 -3.21875 1.40625q-1.96875 0 -3.203125 -1.59375q-1.234375 -1.609375 -1.234375 -4.1875l0 -0.15625zm1.9375 0.21875q0 1.921875 0.78125 3.015625q0.796875 1.078125 2.1875 1.078125q1.84375 0 2.6875 -1.65625l0 -5.171875q-0.875 -1.59375 -2.65625 -1.59375q-1.421875 0 -2.21875 1.09375q-0.78125 1.09375 -0.78125 3.234375zm17.933289 5.515625l-1.921875 0l0 -16.0l1.921875 0l0 16.0zm5.175812 0l-1.921875 0l0 -11.265625l1.921875 0l0 11.265625zm-2.078125 -14.25q0 -0.46875 0.28125 -0.796875q0.296875 -0.328125 0.859375 -0.328125q0.5625 0 0.84375 0.328125q0.296875 0.328125 0.296875 0.796875q0 0.46875 -0.296875 0.78125q-0.28125 0.3125 -0.84375 0.3125q-0.5625 0 -0.859375 -0.3125q-0.28125 -0.3125 -0.28125 -0.78125zm8.316467 9.03125l-1.21875 1.265625l0 3.953125l-1.921875 0l0 -16.0l1.921875 0l0 9.671875l1.03125 -1.234375l3.515625 -3.703125l2.34375 0l-4.390625 4.703125l4.890625 6.5625l-2.25 0l-3.921875 -5.21875zm12.132782 5.421875q-2.296875 0 -3.734375 -1.5q-1.4375 -1.5 -1.4375 -4.03125l0 -0.34375q0 -1.6875 0.640625 -3.0q0.640625 -1.3125 1.78125 -2.046875q1.15625 -0.75 2.5 -0.75q2.203125 0 3.421875 1.453125q1.21875 1.4375 1.21875 4.125l0 0.8125l-7.640625 0q0.046875 1.65625 0.96875 2.6875q0.9375 1.03125 2.375 1.03125q1.03125 0 1.734375 -0.421875q0.703125 -0.421875 1.234375 -1.109375l1.1875 0.921875q-1.421875 2.171875 -4.25 2.171875zm-0.25 -10.09375q-1.15625 0 -1.953125 0.84375q-0.796875 0.84375 -0.984375 2.375l5.65625 0l0 -0.140625q-0.09375 -1.46875 -0.796875 -2.265625q-0.703125 -0.8125 -1.921875 -0.8125zm14.766815 -4.109375l0 2.734375l2.09375 0l0 1.484375l-2.09375 0l0 6.984375q0 0.6875 0.28125 1.03125q0.28125 0.328125 0.953125 0.328125q0.328125 0 0.921875 -0.125l0 1.5625q-0.765625 0.203125 -1.484375 0.203125q-1.296875 0 -1.953125 -0.78125q-0.65625 -0.78125 -0.65625 -2.21875l0 -6.984375l-2.046875 0l0 -1.484375l2.046875 0l0 -2.734375l1.9375 0zm3.633728 8.265625q0 -1.65625 0.640625 -2.984375q0.65625 -1.328125 1.8125 -2.03125q1.171875 -0.71875 2.65625 -0.71875q2.296875 0 3.71875 1.59375q1.421875 1.578125 1.421875 4.234375l0 0.125q0 1.65625 -0.625 2.96875q-0.625 1.296875 -1.796875 2.03125q-1.171875 0.71875 -2.703125 0.71875q-2.28125 0 -3.703125 -1.59375q-1.421875 -1.59375 -1.421875 -4.21875l0 -0.125zm1.9375 0.21875q0 1.875 0.859375 3.015625q0.875 1.140625 2.328125 1.140625q1.46875 0 2.328125 -1.15625q0.875 -1.15625 0.875 -3.21875q0 -1.859375 -0.890625 -3.0q-0.875 -1.15625 -2.328125 -1.15625q-1.421875 0 -2.296875 1.140625q-0.875 1.125 -0.875 3.234375zm15.537415 -0.21875q0 -2.59375 1.234375 -4.15625q1.234375 -1.578125 3.21875 -1.578125q1.984375 0 3.140625 1.34375l0 -5.875l1.921875 0l0 16.0l-1.765625 0l-0.09375 -1.203125q-1.15625 1.40625 -3.21875 1.40625q-1.96875 0 -3.203125 -1.59375q-1.234375 -1.609375 -1.234375 -4.1875l0 -0.15625zm1.9375 0.21875q0 1.921875 0.78125 3.015625q0.796875 1.078125 2.1875 1.078125q1.84375 0 2.6875 -1.65625l0 -5.171875q-0.875 -1.59375 -2.65625 -1.59375q-1.421875 0 -2.21875 1.09375q-0.78125 1.09375 -0.78125 3.234375zm10.05957 -0.21875q0 -1.65625 0.640625 -2.984375q0.65625 -1.328125 1.8125 -2.03125q1.171875 -0.71875 2.65625 -0.71875q2.296875 0 3.71875 1.59375q1.421875 1.578125 1.421875 4.234375l0 0.125q0 1.65625 -0.625 2.96875q-0.625 1.296875 -1.796875 2.03125q-1.171875 0.71875 -2.703125 0.71875q-2.28125 0 -3.703125 -1.59375q-1.421875 -1.59375 -1.421875 -4.21875l0 -0.125zm1.9375 0.21875q0 1.875 0.859375 3.015625q0.875 1.140625 2.328125 1.140625q1.46875 0 2.328125 -1.15625q0.875 -1.15625 0.875 -3.21875q0 -1.859375 -0.890625 -3.0q-0.875 -1.15625 -2.328125 -1.15625q-1.421875 0 -2.296875 1.140625q-0.875 1.125 -0.875 3.234375zm25.99054 2.859375l2.15625 -8.609375l1.9375 0l-3.28125 11.265625l-1.5625 0l-2.734375 -8.546875l-2.671875 8.546875l-1.5625 0l-3.265625 -11.265625l1.90625 0l2.21875 8.4375l2.625 -8.4375l1.5625 0l2.671875 8.609375zm8.136719 2.65625l-1.921875 0l0 -11.265625l1.921875 0l0 11.265625zm-2.078125 -14.25q0 -0.46875 0.28125 -0.796875q0.296875 -0.328125 0.859375 -0.328125q0.5625 0 0.84375 0.328125q0.296875 0.328125 0.296875 0.796875q0 0.46875 -0.296875 0.78125q-0.28125 0.3125 -0.84375 0.3125q-0.5625 0 -0.859375 -0.3125q-0.28125 -0.3125 -0.28125 -0.78125zm7.7852173 0.25l0 2.734375l2.09375 0l0 1.484375l-2.09375 0l0 6.984375q0 0.6875 0.28125 1.03125q0.28125 0.328125 0.953125 0.328125q0.328125 0 0.921875 -0.125l0 1.5625q-0.765625 0.203125 -1.484375 0.203125q-1.296875 0 -1.953125 -0.78125q-0.65625 -0.78125 -0.65625 -2.21875l0 -6.984375l-2.046875 0l0 -1.484375l2.046875 0l0 -2.734375l1.9375 0zm6.279541 4.09375q1.28125 -1.5625 3.328125 -1.5625q3.578125 0 3.609375 4.015625l0 7.453125l-1.9375 0l0 -7.453125q0 -1.21875 -0.546875 -1.796875q-0.546875 -0.59375 -1.703125 -0.59375q-0.9375 0 -1.65625 0.5q-0.703125 0.5 -1.09375 1.3125l0 8.03125l-1.9375 0l0 -16.0l1.9375 0l0 6.09375zm27.042725 9.90625l-2.0 0l0 -7.015625l-7.640625 0l0 7.015625l-2.0 0l0 -15.15625l2.0 0l0 6.515625l7.640625 0l0 -6.515625l2.0 0l0 15.15625zm13.730652 -13.515625l-4.875 0l0 13.515625l-1.984375 0l0 -13.515625l-4.859375 0l0 -1.640625l11.71875 0l0 1.640625zm4.835449 -1.640625l4.953125 12.359375l4.953125 -12.359375l2.59375 0l0 15.15625l-2.0 0l0 -5.90625l0.1875 -6.375l-4.96875 12.28125l-1.53125 0l-4.96875 -12.25l0.203125 6.34375l0 5.90625l-2.0 0l0 -15.15625l2.578125 0zm18.042328 13.515625l7.1875 0l0 1.640625l-9.1875 0l0 -15.15625l2.0 0l0 13.515625zm21.412598 1.640625q-0.171875 -0.328125 -0.28125 -1.1875q-1.34375 1.390625 -3.203125 1.390625q-1.671875 0 -2.734375 -0.9375q-1.0625 -0.9375 -1.0625 -2.390625q0 -1.765625 1.328125 -2.734375q1.34375 -0.96875 3.765625 -0.96875l1.875 0l0 -0.890625q0 -1.015625 -0.609375 -1.609375q-0.59375 -0.59375 -1.765625 -0.59375q-1.03125 0 -1.734375 0.515625q-0.703125 0.515625 -0.703125 1.265625l-1.9375 0q0 -0.84375 0.59375 -1.625q0.609375 -0.796875 1.625 -1.25q1.03125 -0.453125 2.265625 -0.453125q1.953125 0 3.046875 0.96875q1.109375 0.96875 1.15625 2.671875l0 5.1875q0 1.5625 0.390625 2.46875l0 0.171875l-2.015625 0zm-3.203125 -1.46875q0.90625 0 1.71875 -0.46875q0.8125 -0.46875 1.171875 -1.21875l0 -2.3125l-1.5 0q-3.546875 0 -3.546875 2.078125q0 0.90625 0.59375 1.421875q0.609375 0.5 1.5625 0.5zm9.663818 -9.796875l0.0625 1.40625q1.296875 -1.609375 3.375 -1.609375q3.578125 0 3.609375 4.015625l0 7.453125l-1.9375 0l0 -7.453125q0 -1.21875 -0.546875 -1.796875q-0.546875 -0.59375 -1.703125 -0.59375q-0.9375 0 -1.65625 0.5q-0.703125 0.5 -1.09375 1.3125l0 8.03125l-1.9375 0l0 -11.265625l1.828125 0zm9.471069 5.53125q0 -2.59375 1.234375 -4.15625q1.234375 -1.578125 3.21875 -1.578125q1.984375 0 3.140625 1.34375l0 -5.875l1.921875 0l0 16.0l-1.765625 0l-0.09375 -1.203125q-1.15625 1.40625 -3.21875 1.40625q-1.96875 0 -3.203125 -1.59375q-1.234375 -1.609375 -1.234375 -4.1875l0 -0.15625zm1.9375 0.21875q0 1.921875 0.78125 3.015625q0.796875 1.078125 2.1875 1.078125q1.84375 0 2.6875 -1.65625l0 -5.171875q-0.875 -1.59375 -2.65625 -1.59375q-1.421875 0 -2.21875 1.09375q-0.78125 1.09375 -0.78125 3.234375zm10.950195 6.8125l-1.65625 0l6.328125 -16.453125l1.65625 0l-6.328125 16.453125zm7.8988647 -7.03125q0 -1.65625 0.640625 -2.984375q0.65625 -1.328125 1.8125 -2.03125q1.171875 -0.71875 2.65625 -0.71875q2.296875 0 3.71875 1.59375q1.421875 1.578125 1.421875 4.234375l0 0.125q0 1.65625 -0.625 2.96875q-0.625 1.296875 -1.796875 2.03125q-1.171875 0.71875 -2.703125 0.71875q-2.28125 0 -3.703125 -1.59375q-1.421875 -1.59375 -1.421875 -4.21875l0 -0.125zm1.9375 0.21875q0 1.875 0.859375 3.015625q0.875 1.140625 2.328125 1.140625q1.46875 0 2.328125 -1.15625q0.875 -1.15625 0.875 -3.21875q0 -1.859375 -0.890625 -3.0q-0.875 -1.15625 -2.328125 -1.15625q-1.421875 0 -2.296875 1.140625q-0.875 1.125 -0.875 3.234375zm16.179321 -4.03125q-0.4375 -0.0625 -0.953125 -0.0625q-1.890625 0 -2.5625 1.609375l0 8.0l-1.9375 0l0 -11.265625l1.875 0l0.03125 1.296875q0.953125 -1.5 2.6875 -1.5q0.5625 0 0.859375 0.140625l0 1.78125zm18.49701 4.734375q-0.28125 2.40625 -1.78125 3.71875q-1.484375 1.296875 -3.953125 1.296875q-2.6875 0 -4.3125 -1.921875q-1.625 -1.921875 -1.625 -5.15625l0 -1.453125q0 -2.125 0.75 -3.71875q0.765625 -1.609375 2.140625 -2.46875q1.390625 -0.859375 3.21875 -0.859375q2.421875 0 3.875 1.359375q1.453125 1.34375 1.6875 3.71875l-2.0 0q-0.265625 -1.796875 -1.140625 -2.609375q-0.859375 -0.8125 -2.421875 -0.8125q-1.921875 0 -3.015625 1.421875q-1.078125 1.40625 -1.078125 4.015625l0 1.46875q0 2.46875 1.03125 3.9375q1.03125 1.453125 2.890625 1.453125q1.65625 0 2.546875 -0.75q0.890625 -0.765625 1.1875 -2.640625l2.0 0zm7.210144 -1.953125q-2.578125 -0.734375 -3.75 -1.8125q-1.171875 -1.078125 -1.171875 -2.65625q0 -1.796875 1.421875 -2.96875q1.4375 -1.171875 3.734375 -1.171875q1.5625 0 2.78125 0.609375q1.234375 0.609375 1.890625 1.671875q0.671875 1.0625 0.671875 2.3125l-2.0 0q0 -1.375 -0.875 -2.15625q-0.875 -0.78125 -2.46875 -0.78125q-1.484375 0 -2.3125 0.65625q-0.828125 0.640625 -0.828125 1.796875q0 0.921875 0.78125 1.5625q0.796875 0.640625 2.6875 1.171875q1.890625 0.53125 2.953125 1.171875q1.0625 0.640625 1.578125 1.5q0.515625 0.84375 0.515625 2.0q0 1.84375 -1.4375 2.953125q-1.421875 1.109375 -3.828125 1.109375q-1.5625 0 -2.921875 -0.59375q-1.359375 -0.59375 -2.09375 -1.640625q-0.734375 -1.046875 -0.734375 -2.359375l2.015625 0q0 1.375 1.015625 2.171875q1.015625 0.796875 2.71875 0.796875q1.578125 0 2.421875 -0.640625q0.84375 -0.65625 0.84375 -1.765625q0 -1.125 -0.78125 -1.734375q-0.78125 -0.609375 -2.828125 -1.203125zm12.653198 0q-2.578125 -0.734375 -3.75 -1.8125q-1.171875 -1.078125 -1.171875 -2.65625q0 -1.796875 1.421875 -2.96875q1.4375 -1.171875 3.734375 -1.171875q1.5625 0 2.78125 0.609375q1.234375 0.609375 1.890625 1.671875q0.671875 1.0625 0.671875 2.3125l-2.0 0q0 -1.375 -0.875 -2.15625q-0.875 -0.78125 -2.46875 -0.78125q-1.484375 0 -2.3125 0.65625q-0.828125 0.640625 -0.828125 1.796875q0 0.921875 0.78125 1.5625q0.796875 0.640625 2.6875 1.171875q1.890625 0.53125 2.953125 1.171875q1.0625 0.640625 1.578125 1.5q0.515625 0.84375 0.515625 2.0q0 1.84375 -1.4375 2.953125q-1.421875 1.109375 -3.828125 1.109375q-1.5625 0 -2.921875 -0.59375q-1.359375 -0.59375 -2.09375 -1.640625q-0.734375 -1.046875 -0.734375 -2.359375l2.015625 0q0 1.375 1.015625 2.171875q1.015625 0.796875 2.71875 0.796875q1.578125 0 2.421875 -0.640625q0.84375 -0.65625 0.84375 -1.765625q0 -1.125 -0.78125 -1.734375q-0.78125 -0.609375 -2.828125 -1.203125z" fill-rule="nonzero"/><path fill="#000000" fill-opacity="0.0" d="m889.4969 489.5766l57.606323 0l0 41.322815l-57.606323 0z" fill-rule="evenodd"/><path fill="#666666" d="m936.13477 505.55365l0 1.03125l-0.21875 0q-1.40625 0.015625 -2.25 0.828125q-0.828125 0.8125 -0.953125 2.265625q0.75 -0.859375 2.03125 -0.859375q1.25 0 1.984375 0.875q0.734375 0.875 0.734375 2.25q0 1.46875 -0.796875 2.34375q-0.796875 0.875 -2.140625 0.875q-1.359375 0 -2.203125 -1.03125q-0.84375 -1.046875 -0.84375 -2.703125l0 -0.453125q0 -2.625 1.109375 -4.0q1.125 -1.390625 3.328125 -1.421875l0.21875 0zm-1.578125 4.265625q-0.625 0 -1.15625 0.375q-0.515625 0.375 -0.71875 0.9375l0 0.4375q0 1.171875 0.53125 1.890625q0.53125 0.71875 1.3125 0.71875q0.8125 0 1.28125 -0.59375q0.46875 -0.609375 0.46875 -1.578125q0 -0.984375 -0.46875 -1.578125q-0.46875 -0.609375 -1.25 -0.609375z" fill-rule="nonzero"/></g></svg>